<svg width="454" height="58" viewBox="0 0 454 58" fill="none" xmlns="http://www.w3.org/2000/svg">
<path d="M0 50.5C0 46.3579 3.35786 43 7.5 43H446.5C450.642 43 454 46.3579 454 50.5V50.5C454 54.6421 450.642 58 446.5 58H7.50001C3.35787 58 0 54.6421 0 50.5V50.5Z" fill="url(#paint0_linear_45_434)"/>
<g clip-path="url(#clip0_45_434)">
<path d="M203.448 12.624L202.704 12.6L202.008 9.72C201.08 9.56 200.384 9.48 199.92 9.48C199.008 9.48 197.984 9.664 196.848 10.032C196.512 10.656 196.248 11.456 196.056 12.432C195.864 13.408 195.768 14.328 195.768 15.192C195.768 19.608 197.04 21.816 199.584 21.816C200.672 21.816 201.536 21.656 202.176 21.336L202.68 18.408C203.688 18.408 204.456 18.464 204.984 18.576C205.24 20.32 205.368 21.736 205.368 22.824C204.984 23.112 204.208 23.432 203.04 23.784C201.888 24.136 200.752 24.312 199.632 24.312C194.864 24.312 192.48 21.368 192.48 15.48C192.48 12.68 193.056 10.552 194.208 9.096C195.376 7.64 197.232 6.912 199.776 6.912C201.04 6.912 202.16 7.096 203.136 7.464C204 7.784 204.736 8.136 205.344 8.52C205.344 9.608 205.224 10.92 204.984 12.456C204.536 12.568 204.024 12.624 203.448 12.624ZM213.236 21.696C215.092 21.696 216.02 20.904 216.02 19.32C216.02 18.648 215.668 18.08 214.964 17.616C214.452 17.264 213.748 16.888 212.852 16.488C211.972 16.072 211.308 15.744 210.86 15.504C210.428 15.264 209.924 14.928 209.348 14.496C208.244 13.648 207.692 12.592 207.692 11.328C207.692 10.064 208.18 9.016 209.156 8.184C210.148 7.336 211.484 6.912 213.164 6.912C214.844 6.912 216.636 7.448 218.54 8.52C218.54 9.672 218.42 10.92 218.18 12.264C217.668 12.424 216.908 12.504 215.9 12.504L215.204 9.648C214.612 9.472 213.964 9.384 213.26 9.384C212.556 9.384 212.012 9.536 211.628 9.84C211.244 10.144 211.052 10.6 211.052 11.208C211.052 11.8 211.348 12.336 211.94 12.816C212.548 13.28 213.276 13.712 214.124 14.112C214.972 14.496 215.556 14.768 215.876 14.928C216.196 15.088 216.604 15.328 217.1 15.648C217.596 15.968 217.972 16.272 218.228 16.56C218.884 17.328 219.212 18.184 219.212 19.128C219.212 20.792 218.66 22.072 217.556 22.968C216.452 23.864 215.012 24.312 213.236 24.312C212.292 24.312 211.252 24.152 210.116 23.832C208.996 23.496 208.044 23.072 207.26 22.56C207.292 21.584 207.42 20.264 207.644 18.6C208.284 18.472 209.052 18.408 209.948 18.408L210.452 21.288C211.332 21.56 212.26 21.696 213.236 21.696ZM226.993 21.696C228.85 21.696 229.778 20.904 229.778 19.32C229.778 18.648 229.426 18.08 228.722 17.616C228.21 17.264 227.506 16.888 226.61 16.488C225.73 16.072 225.066 15.744 224.618 15.504C224.186 15.264 223.682 14.928 223.105 14.496C222.002 13.648 221.45 12.592 221.45 11.328C221.45 10.064 221.938 9.016 222.914 8.184C223.906 7.336 225.242 6.912 226.922 6.912C228.602 6.912 230.394 7.448 232.298 8.52C232.298 9.672 232.178 10.92 231.938 12.264C231.426 12.424 230.666 12.504 229.658 12.504L228.962 9.648C228.37 9.472 227.722 9.384 227.018 9.384C226.314 9.384 225.77 9.536 225.386 9.84C225.002 10.144 224.81 10.6 224.81 11.208C224.81 11.8 225.106 12.336 225.698 12.816C226.306 13.28 227.034 13.712 227.882 14.112C228.73 14.496 229.314 14.768 229.634 14.928C229.954 15.088 230.362 15.328 230.858 15.648C231.354 15.968 231.73 16.272 231.986 16.56C232.642 17.328 232.97 18.184 232.97 19.128C232.97 20.792 232.418 22.072 231.314 22.968C230.21 23.864 228.77 24.312 226.993 24.312C226.05 24.312 225.01 24.152 223.874 23.832C222.754 23.496 221.802 23.072 221.018 22.56C221.05 21.584 221.178 20.264 221.402 18.6C222.042 18.472 222.81 18.408 223.706 18.408L224.21 21.288C225.09 21.56 226.018 21.696 226.993 21.696ZM241.519 7.392C239.535 12 238.543 15.552 238.543 18.048C238.543 20.544 239.535 24.08 241.519 28.656L241.951 29.712C241.471 30.256 240.815 30.592 239.983 30.72C238.911 29.312 237.871 27.344 236.863 24.816C235.871 22.304 235.375 20.04 235.375 18.024C235.375 16.008 235.871 13.744 236.863 11.232C237.871 8.704 238.911 6.736 239.983 5.328C240.783 5.536 241.439 5.872 241.951 6.336L241.519 7.392ZM251.267 11.04C251.395 11.12 251.563 11.336 251.771 11.688C251.979 12.024 252.083 12.264 252.083 12.408C252.083 12.552 252.075 12.664 252.059 12.744C251.179 15.56 250.147 18.664 248.963 22.056C247.795 25.448 247.171 27.24 247.091 27.432C246.099 27.304 245.363 27.048 244.883 26.664L248.819 13.224H245.363L244.811 15.984C244.619 16.016 244.331 16.032 243.947 16.032L242.555 15.864C242.219 14.856 242.051 13.736 242.051 12.504C242.051 12.152 242.099 11.664 242.195 11.04H251.267ZM259.328 10.752C261.312 10.752 262.76 11.328 263.672 12.48C264.584 13.616 265.04 15.24 265.04 17.352C265.04 19.448 264.584 21.128 263.672 22.392C262.76 23.656 261.304 24.288 259.304 24.288C257.304 24.288 255.872 23.728 255.008 22.608C254.144 21.472 253.712 19.76 253.712 17.472C253.712 12.992 255.584 10.752 259.328 10.752ZM258.104 21.84C258.44 22.016 258.848 22.104 259.328 22.104C259.808 22.104 260.208 22.016 260.528 21.84C260.864 21.664 261.112 21.448 261.272 21.192C261.448 20.936 261.584 20.576 261.68 20.112C261.808 19.504 261.872 18.616 261.872 17.448C261.872 14.44 261.024 12.936 259.328 12.936C258.864 12.936 258.464 13.032 258.128 13.224C257.792 13.416 257.536 13.64 257.36 13.896C257.184 14.152 257.048 14.496 256.952 14.928C256.824 15.504 256.76 16.192 256.76 16.992C256.76 17.776 256.768 18.368 256.784 18.768C256.816 19.152 256.872 19.584 256.952 20.064C257.048 20.528 257.184 20.896 257.36 21.168C257.536 21.424 257.784 21.648 258.104 21.84ZM266.273 11.04C266.273 9.52 266.633 8.32 267.353 7.44C268.089 6.544 269.177 6.096 270.617 6.096C272.073 6.096 273.177 6.528 273.929 7.392C274.681 8.256 275.057 9.432 275.057 10.92C275.057 12.392 274.681 13.6 273.929 14.544C273.177 15.472 272.081 15.936 270.641 15.936C267.729 15.936 266.273 14.304 266.273 11.04ZM275.897 19.416C275.897 17.896 276.257 16.696 276.977 15.816C277.713 14.92 278.801 14.472 280.241 14.472C281.697 14.472 282.793 14.904 283.529 15.768C284.281 16.632 284.657 17.808 284.657 19.296C284.657 20.784 284.281 21.992 283.529 22.92C282.793 23.848 281.705 24.312 280.265 24.312C277.353 24.312 275.897 22.68 275.897 19.416ZM282.329 7.752L270.209 24.456C269.601 24.168 269.033 23.776 268.505 23.28L280.001 6.24C280.961 6.64 281.737 7.144 282.329 7.752ZM269.489 13.368C269.585 13.528 269.729 13.672 269.921 13.8C270.113 13.928 270.361 13.992 270.665 13.992C270.985 13.992 271.249 13.912 271.457 13.752C271.681 13.592 271.833 13.344 271.913 13.008C272.041 12.496 272.105 11.952 272.105 11.376C272.105 10.784 272.089 10.352 272.057 10.08C272.041 9.808 271.993 9.488 271.913 9.12C271.753 8.4 271.329 8.04 270.641 8.04C270.113 8.04 269.729 8.24 269.489 8.64C269.297 8.96 269.193 9.344 269.177 9.792C269.161 10.24 269.153 10.656 269.153 11.04C269.153 11.408 269.153 11.696 269.153 11.904C269.169 12.096 269.201 12.344 269.249 12.648C269.313 12.952 269.393 13.192 269.489 13.368ZM279.113 21.72C279.209 21.88 279.353 22.024 279.545 22.152C279.737 22.28 279.969 22.344 280.241 22.344C280.529 22.344 280.769 22.28 280.961 22.152C281.153 22.024 281.297 21.88 281.393 21.72C281.489 21.56 281.569 21.336 281.633 21.048C281.697 20.68 281.729 20.232 281.729 19.704C281.729 19.16 281.713 18.752 281.681 18.48C281.665 18.192 281.617 17.872 281.537 17.52C281.377 16.784 280.953 16.416 280.265 16.416C279.737 16.416 279.353 16.616 279.113 17.016C278.921 17.336 278.817 17.72 278.801 18.168C278.785 18.616 278.777 19.024 278.777 19.392C278.777 19.76 278.777 20.048 278.777 20.256C278.793 20.464 278.825 20.72 278.872 21.024C278.937 21.312 279.017 21.544 279.113 21.72ZM286.542 28.656C288.526 24.08 289.518 20.544 289.518 18.048C289.518 15.552 288.526 12 286.542 7.392L286.11 6.336C286.622 5.872 287.278 5.536 288.078 5.328C289.15 6.736 290.182 8.704 291.174 11.232C292.182 13.744 292.686 16.008 292.686 18.024C292.686 20.04 292.182 22.304 291.174 24.816C290.182 27.344 289.15 29.312 288.078 30.72C287.246 30.592 286.59 30.256 286.11 29.712L286.542 28.656Z" fill="#7906D2"/>
<path d="M160 5L162.181 26.2036L172 29L181.819 26.2036L184 5H160ZM179.569 9.28571L179.269 11.8196L172.062 14.4607L172.044 14.4661H179.013L178.212 22.3196L172.075 23.8571L165.9 22.2929L165.5 18.3339H168.556L168.756 20.3857L172.044 21.0982L175.462 20.2732L175.694 16.9732L165.3 16.9464V16.9411L165.287 16.9464L165.062 14.4661L172.069 11.9643L172.475 11.8196H164.794L164.431 9.28571H179.569Z" fill="#7906D2"/>
</g>
<defs>
<linearGradient id="paint0_linear_45_434" x1="316" y1="43" x2="326.27" y2="56.2388" gradientUnits="userSpaceOnUse">
<stop offset="0.122853" stop-color="#7906D2"/>
<stop offset="1" stop-color="#FF239A"/>
</linearGradient>
<clipPath id="clip0_45_434">
<rect width="134" height="25" fill="white" transform="translate(160 4)"/>
</clipPath>
</defs>
</svg>
