<svg width="530" height="372" viewBox="0 0 530 372" fill="none" xmlns="http://www.w3.org/2000/svg">
<path d="M45 74.5C45 70.3579 48.3579 67 52.5 67H491.5C495.642 67 499 70.3579 499 74.5V74.5C499 78.6421 495.642 82 491.5 82H52.5C48.3579 82 45 78.6421 45 74.5V74.5Z" fill="url(#paint0_linear_196_334)"/>
<g clip-path="url(#clip0_196_334)">
<path d="M190 29L192.159 50.5365L201.998 53L211.799 50.5365L214 29H190ZM209.463 34.1087L209.306 35.4702L209.25 36.0327H197.756L198.024 38.75H208.985L208.877 39.451L208.184 46.4375L208.128 46.9048L202.011 48.3933V48.4019H201.972L201.962 48.4048V48.4019H201.959L195.79 46.9019L195.417 42.7308H198.397L198.61 44.8423L201.959 45.6413H201.972L205.309 44.8452L205.682 41.424H201.962V41.4212H195.26L194.514 34.1087L194.458 33.4077H209.515L209.463 34.1087Z" fill="#7906D2"/>
<path d="M234.288 45.984L234.192 40.32H227.904C227.872 42.72 227.856 44.512 227.856 45.696L229.512 45.912C229.512 46.568 229.328 47.264 228.96 48H223.128L222.912 46.68C223.808 46.312 224.48 46.08 224.928 45.984C224.928 45.936 224.856 41.704 224.712 33.288L222.72 32.664L222.912 31.2H229.128C229.384 31.632 229.536 32.264 229.584 33.096C228.768 33.224 228.232 33.304 227.976 33.336C227.944 35.416 227.928 36.976 227.928 38.016H234.144L234.072 33.288L232.08 32.664L232.272 31.2H238.488C238.744 31.632 238.896 32.264 238.944 33.096C238.128 33.224 237.592 33.304 237.336 33.336L237.216 45.696L238.872 45.912C238.872 46.568 238.688 47.264 238.32 48H232.488L232.272 46.68C233.168 46.312 233.84 46.08 234.288 45.984ZM240.723 35.568C240.467 34.464 240.339 33.592 240.339 32.952C240.339 32.312 240.363 31.728 240.411 31.2H254.355C254.419 31.968 254.451 32.488 254.451 32.76C254.451 33.448 254.323 34.384 254.067 35.568C253.603 35.696 252.843 35.76 251.787 35.76L251.235 33.336H249.195C249.179 33.944 249.107 38.064 248.979 45.696L250.707 45.912C250.707 46.648 250.523 47.344 250.155 48H244.323L244.107 46.68C245.211 46.264 245.907 46.032 246.195 45.984C246.195 45.92 246.099 41.712 245.907 33.36H243.531L243.003 35.712C242.059 35.712 241.299 35.664 240.723 35.568ZM267.222 43.104L269.43 31.2H275.67C275.798 31.888 275.862 32.376 275.862 32.664C275.094 32.936 274.43 33.144 273.87 33.288L275.574 45.696L277.23 45.912C277.23 46.568 277.046 47.264 276.678 48H270.846L270.63 46.68C271.526 46.312 272.198 46.08 272.646 45.984L270.798 36.192L268.35 46.824H265.902L262.11 35.088L260.07 45.696L261.726 45.912C261.726 46.568 261.542 47.264 261.174 48H255.342L255.126 46.68C256.022 46.312 256.694 46.08 257.142 45.984L258.846 33.288L256.854 32.664L257.046 31.2H263.766L266.982 43.104H267.222ZM289.294 43.632C289.678 43.568 289.966 43.536 290.158 43.536C290.366 43.536 290.806 43.592 291.478 43.704C291.542 43.832 291.63 44.24 291.742 44.928C291.87 45.616 291.934 46.176 291.934 46.608C291.934 47.024 291.886 47.488 291.79 48H280.15L279.934 46.68C280.718 46.36 281.39 46.128 281.95 45.984C281.95 45.936 281.878 41.704 281.734 33.288L279.742 32.664L279.934 31.2H286.174C286.158 31.2 286.158 31.216 286.174 31.248C286.206 31.28 286.238 31.352 286.27 31.464C286.318 31.56 286.366 31.68 286.414 31.824C286.51 32.08 286.574 32.504 286.606 33.096C285.79 33.224 285.254 33.304 284.998 33.336C284.934 38.856 284.894 42.976 284.878 45.696H288.766L289.294 43.632ZM300.113 31.392C298.129 36 297.137 39.552 297.137 42.048C297.137 44.544 298.129 48.08 300.113 52.656L300.545 53.712C300.065 54.256 299.409 54.592 298.577 54.72C297.505 53.312 296.465 51.344 295.457 48.816C294.465 46.304 293.969 44.04 293.969 42.024C293.969 40.008 294.465 37.744 295.457 35.232C296.465 32.704 297.505 30.736 298.577 29.328C299.377 29.536 300.033 29.872 300.545 30.336L300.113 31.392ZM312.069 43.464C312.069 44.84 311.629 45.992 310.749 46.92C309.885 47.832 308.549 48.288 306.741 48.288C305.461 48.288 304.261 47.952 303.141 47.28C302.565 46.928 302.093 46.44 301.725 45.816C301.373 45.192 301.197 44.456 301.197 43.608C301.197 42.744 301.445 41.96 301.941 41.256C302.437 40.552 303.101 39.872 303.933 39.216C302.349 38.336 301.557 36.952 301.557 35.064C301.557 33.704 302.021 32.632 302.949 31.848C303.877 31.064 305.149 30.672 306.765 30.672C308.397 30.672 309.669 31.08 310.581 31.896C311.509 32.712 311.973 33.664 311.973 34.752C311.973 35.824 311.725 36.76 311.229 37.56C310.733 38.36 310.093 39.008 309.309 39.504C310.429 40.272 311.165 40.968 311.517 41.592C311.885 42.216 312.069 42.84 312.069 43.464ZM309.021 43.872C309.021 43.088 308.797 42.448 308.349 41.952C307.901 41.44 307.117 40.88 305.997 40.272C304.909 41.168 304.365 42.272 304.365 43.584C304.365 44.32 304.629 44.936 305.157 45.432C305.701 45.928 306.237 46.176 306.765 46.176C308.269 46.176 309.021 45.408 309.021 43.872ZM308.805 34.92C308.805 33.544 308.117 32.856 306.741 32.856C306.277 32.856 305.757 32.936 305.181 33.096C304.877 33.704 304.725 34.32 304.725 34.944C304.725 36.448 305.421 37.512 306.813 38.136C306.877 38.152 306.957 38.192 307.053 38.256C307.165 38.304 307.245 38.336 307.293 38.352C308.301 37.6 308.805 36.456 308.805 34.92ZM319.469 34.752C321.453 34.752 322.901 35.328 323.813 36.48C324.725 37.616 325.181 39.24 325.181 41.352C325.181 43.448 324.725 45.128 323.813 46.392C322.901 47.656 321.445 48.288 319.445 48.288C317.445 48.288 316.013 47.728 315.149 46.608C314.285 45.472 313.853 43.76 313.853 41.472C313.853 36.992 315.725 34.752 319.469 34.752ZM318.245 45.84C318.581 46.016 318.989 46.104 319.469 46.104C319.949 46.104 320.349 46.016 320.669 45.84C321.005 45.664 321.253 45.448 321.413 45.192C321.589 44.936 321.725 44.576 321.821 44.112C321.949 43.504 322.013 42.616 322.013 41.448C322.013 38.44 321.165 36.936 319.469 36.936C319.005 36.936 318.605 37.032 318.269 37.224C317.933 37.416 317.677 37.64 317.501 37.896C317.325 38.152 317.189 38.496 317.093 38.928C316.965 39.504 316.901 40.192 316.901 40.992C316.901 41.776 316.909 42.368 316.925 42.768C316.957 43.152 317.013 43.584 317.093 44.064C317.189 44.528 317.325 44.896 317.501 45.168C317.677 45.424 317.925 45.648 318.245 45.84ZM326.413 35.04C326.413 33.52 326.773 32.32 327.493 31.44C328.229 30.544 329.317 30.096 330.757 30.096C332.213 30.096 333.317 30.528 334.069 31.392C334.821 32.256 335.197 33.432 335.197 34.92C335.197 36.392 334.821 37.6 334.069 38.544C333.317 39.472 332.221 39.936 330.781 39.936C327.869 39.936 326.413 38.304 326.413 35.04ZM336.037 43.416C336.037 41.896 336.397 40.696 337.117 39.816C337.853 38.92 338.941 38.472 340.381 38.472C341.837 38.472 342.933 38.904 343.669 39.768C344.421 40.632 344.797 41.808 344.797 43.296C344.797 44.784 344.421 45.992 343.669 46.92C342.933 47.848 341.845 48.312 340.405 48.312C337.493 48.312 336.037 46.68 336.037 43.416ZM342.469 31.752L330.349 48.456C329.741 48.168 329.173 47.776 328.645 47.28L340.141 30.24C341.101 30.64 341.877 31.144 342.469 31.752ZM329.629 37.368C329.725 37.528 329.869 37.672 330.061 37.8C330.253 37.928 330.501 37.992 330.805 37.992C331.125 37.992 331.389 37.912 331.597 37.752C331.821 37.592 331.973 37.344 332.053 37.008C332.181 36.496 332.245 35.952 332.245 35.376C332.245 34.784 332.229 34.352 332.197 34.08C332.181 33.808 332.133 33.488 332.053 33.12C331.893 32.4 331.469 32.04 330.781 32.04C330.253 32.04 329.869 32.24 329.629 32.64C329.437 32.96 329.333 33.344 329.317 33.792C329.301 34.24 329.293 34.656 329.293 35.04C329.293 35.408 329.293 35.696 329.293 35.904C329.309 36.096 329.341 36.344 329.389 36.648C329.453 36.952 329.533 37.192 329.629 37.368ZM339.253 45.72C339.349 45.88 339.493 46.024 339.685 46.152C339.877 46.28 340.109 46.344 340.381 46.344C340.669 46.344 340.909 46.28 341.101 46.152C341.293 46.024 341.437 45.88 341.533 45.72C341.629 45.56 341.709 45.336 341.773 45.048C341.837 44.68 341.869 44.232 341.869 43.704C341.869 43.16 341.853 42.752 341.821 42.48C341.805 42.192 341.757 41.872 341.677 41.52C341.517 40.784 341.093 40.416 340.405 40.416C339.877 40.416 339.493 40.616 339.253 41.016C339.061 41.336 338.957 41.72 338.941 42.168C338.925 42.616 338.917 43.024 338.917 43.392C338.917 43.76 338.917 44.048 338.917 44.256C338.933 44.464 338.965 44.72 339.013 45.024C339.077 45.312 339.157 45.544 339.253 45.72ZM346.683 52.656C348.667 48.08 349.659 44.544 349.659 42.048C349.659 39.552 348.667 36 346.683 31.392L346.251 30.336C346.763 29.872 347.419 29.536 348.219 29.328C349.291 30.736 350.323 32.704 351.315 35.232C352.323 37.744 352.827 40.008 352.827 42.024C352.827 44.04 352.323 46.304 351.315 48.816C350.323 51.344 349.291 53.312 348.219 54.72C347.387 54.592 346.731 54.256 346.251 53.712L346.683 52.656Z" fill="#7906D2"/>
</g>
<path d="M45 152.5C45 148.358 48.3579 145 52.5 145H491.5C495.642 145 499 148.358 499 152.5C499 156.642 495.642 160 491.5 160H52.5C48.3579 160 45 156.642 45 152.5Z" fill="url(#paint1_linear_196_334)"/>
<g clip-path="url(#clip1_196_334)">
<path d="M248.448 114.624L247.704 114.6L247.008 111.72C246.08 111.56 245.384 111.48 244.92 111.48C244.008 111.48 242.984 111.664 241.848 112.032C241.512 112.656 241.248 113.456 241.056 114.432C240.864 115.408 240.768 116.328 240.768 117.192C240.768 121.608 242.04 123.816 244.584 123.816C245.672 123.816 246.536 123.656 247.176 123.336L247.68 120.408C248.688 120.408 249.456 120.464 249.984 120.576C250.24 122.32 250.368 123.736 250.368 124.824C249.984 125.112 249.208 125.432 248.04 125.784C246.888 126.136 245.752 126.312 244.632 126.312C239.864 126.312 237.48 123.368 237.48 117.48C237.48 114.68 238.056 112.552 239.208 111.096C240.376 109.64 242.232 108.912 244.776 108.912C246.04 108.912 247.16 109.096 248.136 109.464C249 109.784 249.736 110.136 250.344 110.52C250.344 111.608 250.224 112.92 249.984 114.456C249.536 114.568 249.024 114.624 248.448 114.624ZM258.236 123.696C260.092 123.696 261.02 122.904 261.02 121.32C261.02 120.648 260.668 120.08 259.964 119.616C259.452 119.264 258.748 118.888 257.852 118.488C256.972 118.072 256.308 117.744 255.86 117.504C255.428 117.264 254.924 116.928 254.348 116.496C253.244 115.648 252.692 114.592 252.692 113.328C252.692 112.064 253.18 111.016 254.156 110.184C255.148 109.336 256.484 108.912 258.164 108.912C259.844 108.912 261.636 109.448 263.54 110.52C263.54 111.672 263.42 112.92 263.18 114.264C262.668 114.424 261.908 114.504 260.9 114.504L260.204 111.648C259.612 111.472 258.964 111.384 258.26 111.384C257.556 111.384 257.012 111.536 256.628 111.84C256.244 112.144 256.052 112.6 256.052 113.208C256.052 113.8 256.348 114.336 256.94 114.816C257.548 115.28 258.276 115.712 259.124 116.112C259.972 116.496 260.556 116.768 260.876 116.928C261.196 117.088 261.604 117.328 262.1 117.648C262.596 117.968 262.972 118.272 263.228 118.56C263.884 119.328 264.212 120.184 264.212 121.128C264.212 122.792 263.66 124.072 262.556 124.968C261.452 125.864 260.012 126.312 258.236 126.312C257.292 126.312 256.252 126.152 255.116 125.832C253.996 125.496 253.044 125.072 252.26 124.56C252.292 123.584 252.42 122.264 252.644 120.6C253.284 120.472 254.052 120.408 254.948 120.408L255.452 123.288C256.332 123.56 257.26 123.696 258.236 123.696ZM271.993 123.696C273.85 123.696 274.778 122.904 274.778 121.32C274.778 120.648 274.426 120.08 273.722 119.616C273.21 119.264 272.506 118.888 271.61 118.488C270.73 118.072 270.066 117.744 269.618 117.504C269.186 117.264 268.682 116.928 268.105 116.496C267.002 115.648 266.45 114.592 266.45 113.328C266.45 112.064 266.938 111.016 267.914 110.184C268.906 109.336 270.242 108.912 271.922 108.912C273.602 108.912 275.394 109.448 277.298 110.52C277.298 111.672 277.178 112.92 276.938 114.264C276.426 114.424 275.666 114.504 274.658 114.504L273.962 111.648C273.37 111.472 272.722 111.384 272.018 111.384C271.314 111.384 270.77 111.536 270.386 111.84C270.002 112.144 269.81 112.6 269.81 113.208C269.81 113.8 270.106 114.336 270.698 114.816C271.306 115.28 272.034 115.712 272.882 116.112C273.73 116.496 274.314 116.768 274.634 116.928C274.954 117.088 275.362 117.328 275.858 117.648C276.354 117.968 276.73 118.272 276.986 118.56C277.642 119.328 277.97 120.184 277.97 121.128C277.97 122.792 277.418 124.072 276.314 124.968C275.21 125.864 273.77 126.312 271.993 126.312C271.05 126.312 270.01 126.152 268.874 125.832C267.754 125.496 266.802 125.072 266.018 124.56C266.05 123.584 266.178 122.264 266.402 120.6C267.042 120.472 267.81 120.408 268.706 120.408L269.21 123.288C270.09 123.56 271.018 123.696 271.993 123.696ZM286.519 109.392C284.535 114 283.543 117.552 283.543 120.048C283.543 122.544 284.535 126.08 286.519 130.656L286.951 131.712C286.471 132.256 285.815 132.592 284.983 132.72C283.911 131.312 282.871 129.344 281.863 126.816C280.871 124.304 280.375 122.04 280.375 120.024C280.375 118.008 280.871 115.744 281.863 113.232C282.871 110.704 283.911 108.736 284.983 107.328C285.783 107.536 286.439 107.872 286.951 108.336L286.519 109.392ZM296.267 113.04C296.395 113.12 296.563 113.336 296.771 113.688C296.979 114.024 297.083 114.264 297.083 114.408C297.083 114.552 297.075 114.664 297.059 114.744C296.179 117.56 295.147 120.664 293.963 124.056C292.795 127.448 292.171 129.24 292.091 129.432C291.099 129.304 290.363 129.048 289.883 128.664L293.819 115.224H290.363L289.811 117.984C289.619 118.016 289.331 118.032 288.947 118.032L287.555 117.864C287.219 116.856 287.051 115.736 287.051 114.504C287.051 114.152 287.099 113.664 287.195 113.04H296.267ZM304.328 112.752C306.312 112.752 307.76 113.328 308.672 114.48C309.584 115.616 310.04 117.24 310.04 119.352C310.04 121.448 309.584 123.128 308.672 124.392C307.76 125.656 306.304 126.288 304.304 126.288C302.304 126.288 300.872 125.728 300.008 124.608C299.144 123.472 298.712 121.76 298.712 119.472C298.712 114.992 300.584 112.752 304.328 112.752ZM303.104 123.84C303.44 124.016 303.848 124.104 304.328 124.104C304.808 124.104 305.208 124.016 305.528 123.84C305.864 123.664 306.112 123.448 306.272 123.192C306.448 122.936 306.584 122.576 306.68 122.112C306.808 121.504 306.872 120.616 306.872 119.448C306.872 116.44 306.024 114.936 304.328 114.936C303.864 114.936 303.464 115.032 303.128 115.224C302.792 115.416 302.536 115.64 302.36 115.896C302.184 116.152 302.048 116.496 301.952 116.928C301.824 117.504 301.76 118.192 301.76 118.992C301.76 119.776 301.768 120.368 301.784 120.768C301.816 121.152 301.872 121.584 301.952 122.064C302.048 122.528 302.184 122.896 302.36 123.168C302.536 123.424 302.784 123.648 303.104 123.84ZM311.273 113.04C311.273 111.52 311.633 110.32 312.353 109.44C313.089 108.544 314.177 108.096 315.617 108.096C317.073 108.096 318.177 108.528 318.929 109.392C319.681 110.256 320.057 111.432 320.057 112.92C320.057 114.392 319.681 115.6 318.929 116.544C318.177 117.472 317.081 117.936 315.641 117.936C312.729 117.936 311.273 116.304 311.273 113.04ZM320.897 121.416C320.897 119.896 321.257 118.696 321.977 117.816C322.713 116.92 323.801 116.472 325.241 116.472C326.697 116.472 327.793 116.904 328.529 117.768C329.281 118.632 329.657 119.808 329.657 121.296C329.657 122.784 329.281 123.992 328.529 124.92C327.793 125.848 326.705 126.312 325.265 126.312C322.353 126.312 320.897 124.68 320.897 121.416ZM327.329 109.752L315.209 126.456C314.601 126.168 314.033 125.776 313.505 125.28L325.001 108.24C325.961 108.64 326.737 109.144 327.329 109.752ZM314.489 115.368C314.585 115.528 314.729 115.672 314.921 115.8C315.113 115.928 315.361 115.992 315.665 115.992C315.985 115.992 316.249 115.912 316.457 115.752C316.681 115.592 316.833 115.344 316.913 115.008C317.041 114.496 317.105 113.952 317.105 113.376C317.105 112.784 317.089 112.352 317.057 112.08C317.041 111.808 316.993 111.488 316.913 111.12C316.753 110.4 316.329 110.04 315.641 110.04C315.113 110.04 314.729 110.24 314.489 110.64C314.297 110.96 314.193 111.344 314.177 111.792C314.161 112.24 314.153 112.656 314.153 113.04C314.153 113.408 314.153 113.696 314.153 113.904C314.169 114.096 314.201 114.344 314.249 114.648C314.313 114.952 314.393 115.192 314.489 115.368ZM324.113 123.72C324.209 123.88 324.353 124.024 324.545 124.152C324.737 124.28 324.969 124.344 325.241 124.344C325.529 124.344 325.769 124.28 325.961 124.152C326.153 124.024 326.297 123.88 326.393 123.72C326.489 123.56 326.569 123.336 326.633 123.048C326.697 122.68 326.729 122.232 326.729 121.704C326.729 121.16 326.713 120.752 326.681 120.48C326.665 120.192 326.617 119.872 326.537 119.52C326.377 118.784 325.953 118.416 325.265 118.416C324.737 118.416 324.353 118.616 324.113 119.016C323.921 119.336 323.817 119.72 323.801 120.168C323.785 120.616 323.777 121.024 323.777 121.392C323.777 121.76 323.777 122.048 323.777 122.256C323.793 122.464 323.825 122.72 323.872 123.024C323.937 123.312 324.017 123.544 324.113 123.72ZM331.542 130.656C333.526 126.08 334.518 122.544 334.518 120.048C334.518 117.552 333.526 114 331.542 109.392L331.11 108.336C331.622 107.872 332.278 107.536 333.078 107.328C334.15 108.736 335.182 110.704 336.174 113.232C337.182 115.744 337.686 118.008 337.686 120.024C337.686 122.04 337.182 124.304 336.174 126.816C335.182 129.344 334.15 131.312 333.078 132.72C332.246 132.592 331.59 132.256 331.11 131.712L331.542 130.656Z" fill="#7906D2"/>
<path d="M205 107L207.181 128.204L217 131L226.819 128.204L229 107H205ZM224.569 111.286L224.269 113.82L217.062 116.461L217.044 116.466H224.013L223.212 124.32L217.075 125.857L210.9 124.293L210.5 120.334H213.556L213.756 122.386L217.044 123.098L220.462 122.273L220.694 118.973L210.3 118.946V118.941L210.287 118.946L210.062 116.466L217.069 113.964L217.475 113.82H209.794L209.431 111.286H224.569Z" fill="#7906D2"/>
</g>
<path d="M45 230.5C45 226.358 48.3579 223 52.5 223H491.5C495.642 223 499 226.358 499 230.5C499 234.642 495.642 238 491.5 238H52.5C48.3579 238 45 234.642 45 230.5Z" fill="url(#paint2_linear_196_334)"/>
<g clip-path="url(#clip2_196_334)">
<path d="M190.44 201.768C191.448 201.768 191.952 201 191.952 199.464C191.952 198.888 191.864 195.496 191.688 189.288L189.696 188.664L189.888 187.2H196.128C196.416 187.824 196.56 188.456 196.56 189.096C195.6 189.256 195.064 189.336 194.952 189.336C194.936 190.264 194.92 191.92 194.904 194.304C194.904 196.688 194.888 198.56 194.856 199.92C194.824 201.264 194.472 202.336 193.8 203.136C193.128 203.92 192.152 204.312 190.872 204.312C189.944 204.312 189.016 204.168 188.088 203.88C187.176 203.592 186.52 203.256 186.12 202.872C186.136 201.704 186.264 200.376 186.504 198.888C187.144 198.712 187.928 198.624 188.856 198.624L189.312 201.672C189.568 201.736 189.944 201.768 190.44 201.768ZM209.589 187.464L209.613 187.704C209.613 188.36 209.509 188.92 209.301 189.384C209.093 189.544 208.765 189.672 208.317 189.768L212.325 201.624L214.605 201.912C214.605 202.568 214.421 203.264 214.053 204H208.221L208.005 202.68C208.677 202.424 209.117 202.256 209.325 202.176L208.365 199.464H202.965C202.485 200.888 202.229 201.632 202.197 201.696L203.853 201.912C203.853 202.248 203.789 202.64 203.661 203.088C203.533 203.52 203.413 203.824 203.301 204H197.469L197.253 202.68C197.973 202.376 198.621 202.152 199.197 202.008L203.229 189.672C202.157 189.512 201.349 189.304 200.805 189.048C200.805 188.584 200.877 188.176 201.021 187.824C201.357 187.712 202.141 187.584 203.373 187.44C204.621 187.28 205.805 187.2 206.925 187.2C208.061 187.2 208.949 187.288 209.589 187.464ZM206.493 194.064L205.797 190.896H205.557L204.789 194.208L203.661 197.208H207.669L206.493 194.064ZM221.905 199.512C222.193 198.52 223.265 195.12 225.121 189.312L222.985 188.664L223.177 187.2H229.393C229.681 187.776 229.833 188.408 229.849 189.096L228.361 189.312L223.585 204H220.393L215.233 189.312L213.097 188.664L213.289 187.2H219.505C219.793 187.776 219.945 188.408 219.961 189.096C219.273 189.208 218.801 189.28 218.545 189.312L221.905 199.512ZM241.511 187.464L241.535 187.704C241.535 188.36 241.431 188.92 241.223 189.384C241.015 189.544 240.687 189.672 240.239 189.768L244.247 201.624L246.527 201.912C246.527 202.568 246.343 203.264 245.975 204H240.143L239.927 202.68C240.599 202.424 241.039 202.256 241.247 202.176L240.287 199.464H234.887C234.407 200.888 234.151 201.632 234.119 201.696L235.775 201.912C235.775 202.248 235.711 202.64 235.583 203.088C235.455 203.52 235.335 203.824 235.223 204H229.391L229.175 202.68C229.895 202.376 230.543 202.152 231.119 202.008L235.151 189.672C234.079 189.512 233.271 189.304 232.727 189.048C232.727 188.584 232.799 188.176 232.943 187.824C233.279 187.712 234.063 187.584 235.295 187.44C236.543 187.28 237.727 187.2 238.847 187.2C239.983 187.2 240.871 187.288 241.511 187.464ZM238.415 194.064L237.719 190.896H237.479L236.711 194.208L235.583 197.208H239.591L238.415 194.064ZM253.853 201.696C255.709 201.696 256.637 200.904 256.637 199.32C256.637 198.648 256.285 198.08 255.581 197.616C255.069 197.264 254.365 196.888 253.469 196.488C252.589 196.072 251.925 195.744 251.477 195.504C251.045 195.264 250.541 194.928 249.965 194.496C248.861 193.648 248.309 192.592 248.309 191.328C248.309 190.064 248.797 189.016 249.773 188.184C250.765 187.336 252.101 186.912 253.781 186.912C255.461 186.912 257.253 187.448 259.157 188.52C259.157 189.672 259.037 190.92 258.797 192.264C258.285 192.424 257.525 192.504 256.517 192.504L255.821 189.648C255.229 189.472 254.581 189.384 253.877 189.384C253.173 189.384 252.629 189.536 252.245 189.84C251.861 190.144 251.669 190.6 251.669 191.208C251.669 191.8 251.965 192.336 252.557 192.816C253.165 193.28 253.893 193.712 254.741 194.112C255.589 194.496 256.173 194.768 256.493 194.928C256.813 195.088 257.221 195.328 257.717 195.648C258.213 195.968 258.589 196.272 258.845 196.56C259.501 197.328 259.829 198.184 259.829 199.128C259.829 200.792 259.277 202.072 258.173 202.968C257.069 203.864 255.629 204.312 253.853 204.312C252.909 204.312 251.869 204.152 250.733 203.832C249.613 203.496 248.661 203.072 247.877 202.56C247.909 201.584 248.037 200.264 248.261 198.6C248.901 198.472 249.669 198.408 250.565 198.408L251.069 201.288C251.949 201.56 252.877 201.696 253.853 201.696ZM272.003 192.624L271.259 192.6L270.563 189.72C269.635 189.56 268.939 189.48 268.475 189.48C267.563 189.48 266.539 189.664 265.403 190.032C265.067 190.656 264.803 191.456 264.611 192.432C264.419 193.408 264.323 194.328 264.323 195.192C264.323 199.608 265.595 201.816 268.139 201.816C269.227 201.816 270.091 201.656 270.731 201.336L271.235 198.408C272.243 198.408 273.011 198.464 273.539 198.576C273.795 200.32 273.923 201.736 273.923 202.824C273.539 203.112 272.763 203.432 271.595 203.784C270.443 204.136 269.307 204.312 268.187 204.312C263.419 204.312 261.035 201.368 261.035 195.48C261.035 192.68 261.611 190.552 262.763 189.096C263.931 187.64 265.787 186.912 268.331 186.912C269.595 186.912 270.715 187.096 271.691 187.464C272.555 187.784 273.291 188.136 273.899 188.52C273.899 189.608 273.779 190.92 273.539 192.456C273.091 192.568 272.579 192.624 272.003 192.624ZM281.478 187.2C284.278 187.2 286.134 187.6 287.046 188.4C287.878 189.12 288.294 190.232 288.294 191.736C288.294 194.072 287.078 195.664 284.646 196.512L288.102 201.72L290.166 201.936C290.166 202.624 289.982 203.312 289.614 204H286.134L281.43 196.824H280.662L280.59 201.72L282.342 201.912C282.342 202.568 282.158 203.264 281.79 204H275.862L275.646 202.68C276.606 202.296 277.278 202.064 277.662 201.984C277.63 200.016 277.59 197.64 277.542 194.856C277.494 192.072 277.462 190.208 277.446 189.264L275.454 188.664C275.47 188.296 275.542 187.808 275.67 187.2H281.478ZM283.374 189.768C282.878 189.656 282.214 189.6 281.382 189.6H280.71C280.678 191.808 280.662 193.464 280.662 194.568L281.838 194.544C282.782 194.528 283.526 194.336 284.07 193.968C284.63 193.584 284.91 192.848 284.91 191.76C284.91 190.672 284.398 190.008 283.374 189.768ZM298.236 187.2C298.22 187.2 298.22 187.216 298.236 187.248C298.268 187.28 298.3 187.352 298.332 187.464C298.38 187.56 298.428 187.68 298.476 187.824C298.572 188.08 298.636 188.504 298.668 189.096C297.852 189.224 297.316 189.304 297.06 189.336L296.94 201.696L298.596 201.912C298.596 202.568 298.412 203.264 298.044 204H292.212L291.996 202.68C292.892 202.312 293.564 202.08 294.012 201.984C293.996 201.04 293.972 199.712 293.94 198C293.892 194.16 293.844 191.256 293.796 189.288L291.804 188.664L291.996 187.2H298.236ZM307.186 187.2C309.218 187.2 310.73 187.552 311.722 188.256C312.714 188.96 313.21 190.24 313.21 192.096C313.21 193.648 312.73 194.944 311.77 195.984C310.81 197.008 309.274 197.52 307.162 197.52C306.474 197.52 305.93 197.512 305.53 197.496L305.482 201.72L307.234 201.912C307.234 202.616 307.05 203.312 306.682 204H300.754L300.538 202.68C301.37 202.344 302.042 202.112 302.554 201.984C302.554 201.936 302.482 197.704 302.338 189.288C302.082 189.224 301.418 189.016 300.346 188.664L300.538 187.2H307.186ZM306.658 195.24C307.73 195.224 308.562 194.928 309.154 194.352C309.746 193.776 310.042 193.032 310.042 192.12C310.042 191.208 309.778 190.56 309.25 190.176C308.738 189.776 307.93 189.576 306.826 189.576C306.394 189.576 305.986 189.584 305.602 189.6C305.57 192.128 305.554 194.016 305.554 195.264L306.658 195.24ZM314.27 191.568C314.014 190.464 313.886 189.592 313.886 188.952C313.886 188.312 313.91 187.728 313.958 187.2H327.902C327.966 187.968 327.998 188.488 327.998 188.76C327.998 189.448 327.87 190.384 327.614 191.568C327.15 191.696 326.39 191.76 325.334 191.76L324.782 189.336H322.742C322.726 189.944 322.654 194.064 322.526 201.696L324.254 201.912C324.254 202.648 324.07 203.344 323.702 204H317.87L317.654 202.68C318.758 202.264 319.454 202.032 319.742 201.984C319.742 201.92 319.646 197.712 319.454 189.36H317.078L316.55 191.712C315.606 191.712 314.846 191.664 314.27 191.568ZM336.137 187.392C334.153 192 333.161 195.552 333.161 198.048C333.161 200.544 334.153 204.08 336.137 208.656L336.569 209.712C336.089 210.256 335.433 210.592 334.601 210.72C333.529 209.312 332.489 207.344 331.48 204.816C330.488 202.304 329.993 200.04 329.993 198.024C329.993 196.008 330.488 193.744 331.48 191.232C332.489 188.704 333.529 186.736 334.601 185.328C335.401 185.536 336.057 185.872 336.569 186.336L336.137 187.392ZM345.885 191.04C346.013 191.12 346.181 191.336 346.389 191.688C346.597 192.024 346.701 192.264 346.701 192.408C346.701 192.552 346.693 192.664 346.677 192.744C345.797 195.56 344.765 198.664 343.581 202.056C342.413 205.448 341.789 207.24 341.709 207.432C340.717 207.304 339.981 207.048 339.501 206.664L343.437 193.224H339.981L339.429 195.984C339.237 196.016 338.949 196.032 338.565 196.032L337.173 195.864C336.837 194.856 336.669 193.736 336.669 192.504C336.669 192.152 336.717 191.664 336.813 191.04H345.885ZM353.945 190.752C355.929 190.752 357.377 191.328 358.289 192.48C359.201 193.616 359.657 195.24 359.657 197.352C359.657 199.448 359.201 201.128 358.289 202.392C357.377 203.656 355.921 204.288 353.921 204.288C351.921 204.288 350.489 203.728 349.625 202.608C348.761 201.472 348.329 199.76 348.329 197.472C348.329 192.992 350.201 190.752 353.945 190.752ZM352.721 201.84C353.057 202.016 353.465 202.104 353.945 202.104C354.425 202.104 354.825 202.016 355.145 201.84C355.481 201.664 355.729 201.448 355.889 201.192C356.065 200.936 356.201 200.576 356.297 200.112C356.425 199.504 356.489 198.616 356.489 197.448C356.489 194.44 355.641 192.936 353.945 192.936C353.481 192.936 353.081 193.032 352.745 193.224C352.409 193.416 352.153 193.64 351.977 193.896C351.801 194.152 351.665 194.496 351.569 194.928C351.441 195.504 351.377 196.192 351.377 196.992C351.377 197.776 351.385 198.368 351.401 198.768C351.433 199.152 351.489 199.584 351.569 200.064C351.665 200.528 351.801 200.896 351.977 201.168C352.153 201.424 352.401 201.648 352.721 201.84ZM360.89 191.04C360.89 189.52 361.25 188.32 361.97 187.44C362.706 186.544 363.794 186.096 365.234 186.096C366.69 186.096 367.794 186.528 368.546 187.392C369.298 188.256 369.674 189.432 369.674 190.92C369.674 192.392 369.298 193.6 368.546 194.544C367.794 195.472 366.698 195.936 365.258 195.936C362.346 195.936 360.89 194.304 360.89 191.04ZM370.514 199.416C370.514 197.896 370.874 196.696 371.594 195.816C372.33 194.92 373.418 194.472 374.858 194.472C376.314 194.472 377.41 194.904 378.146 195.768C378.898 196.632 379.274 197.808 379.274 199.296C379.274 200.784 378.898 201.992 378.146 202.92C377.41 203.848 376.322 204.312 374.882 204.312C371.97 204.312 370.514 202.68 370.514 199.416ZM376.946 187.752L364.826 204.456C364.218 204.168 363.65 203.776 363.122 203.28L374.618 186.24C375.578 186.64 376.354 187.144 376.946 187.752ZM364.106 193.368C364.202 193.528 364.346 193.672 364.538 193.8C364.73 193.928 364.978 193.992 365.282 193.992C365.602 193.992 365.866 193.912 366.074 193.752C366.298 193.592 366.45 193.344 366.53 193.008C366.658 192.496 366.722 191.952 366.722 191.376C366.722 190.784 366.706 190.352 366.674 190.08C366.658 189.808 366.61 189.488 366.53 189.12C366.37 188.4 365.946 188.04 365.258 188.04C364.73 188.04 364.346 188.24 364.106 188.64C363.914 188.96 363.81 189.344 363.794 189.792C363.778 190.24 363.77 190.656 363.77 191.04C363.77 191.408 363.77 191.696 363.77 191.904C363.786 192.096 363.818 192.344 363.866 192.648C363.93 192.952 364.01 193.192 364.106 193.368ZM373.73 201.72C373.826 201.88 373.97 202.024 374.162 202.152C374.354 202.28 374.586 202.344 374.858 202.344C375.146 202.344 375.386 202.28 375.578 202.152C375.77 202.024 375.914 201.88 376.01 201.72C376.106 201.56 376.186 201.336 376.25 201.048C376.314 200.68 376.346 200.232 376.346 199.704C376.346 199.16 376.33 198.752 376.298 198.48C376.282 198.192 376.234 197.872 376.154 197.52C375.994 196.784 375.57 196.416 374.882 196.416C374.354 196.416 373.97 196.616 373.73 197.016C373.538 197.336 373.434 197.72 373.418 198.168C373.402 198.616 373.394 199.024 373.394 199.392C373.394 199.76 373.394 200.048 373.394 200.256C373.41 200.464 373.442 200.72 373.49 201.024C373.554 201.312 373.634 201.544 373.73 201.72ZM381.159 208.656C383.143 204.08 384.135 200.544 384.135 198.048C384.135 195.552 383.143 192 381.159 187.392L380.727 186.336C381.239 185.872 381.895 185.536 382.695 185.328C383.767 186.736 384.799 188.704 385.791 191.232C386.799 193.744 387.303 196.008 387.303 198.024C387.303 200.04 386.799 202.304 385.791 204.816C384.799 207.344 383.767 209.312 382.695 210.72C381.863 210.592 381.207 210.256 380.727 209.712L381.159 208.656Z" fill="#7906D2"/>
<path d="M154 183.5V207.5H178V183.5H154ZM167.061 202.217C167.061 204.553 165.69 205.619 163.692 205.619C161.887 205.619 160.842 204.688 160.306 203.557L162.144 202.448C162.498 203.075 162.819 203.605 163.596 203.605C164.335 203.605 164.806 203.315 164.806 202.186V194.519H167.061V202.217ZM172.396 205.619C170.301 205.619 168.946 204.623 168.287 203.315L170.125 202.255C170.607 203.043 171.239 203.627 172.348 203.627C173.28 203.627 173.881 203.16 173.881 202.512C173.881 201.741 173.269 201.467 172.236 201.012L171.673 200.771C170.045 200.081 168.968 199.207 168.968 197.369C168.968 195.677 170.259 194.391 172.268 194.391C173.704 194.391 174.733 194.889 175.472 196.196L173.715 197.321C173.329 196.631 172.911 196.357 172.263 196.357C171.605 196.357 171.187 196.775 171.187 197.321C171.187 197.997 171.605 198.269 172.574 198.693L173.137 198.934C175.055 199.753 176.131 200.595 176.131 202.48C176.131 204.505 174.535 205.619 172.397 205.619L172.396 205.619Z" fill="#7906D2"/>
</g>
<path d="M45 308.5C45 304.358 48.3579 301 52.5 301H491.5C495.642 301 499 304.358 499 308.5C499 312.642 495.642 316 491.5 316H52.5C48.3579 316 45 312.642 45 308.5Z" fill="url(#paint3_linear_196_334)"/>
<g clip-path="url(#clip3_196_334)">
<path d="M212.744 266.2C215.544 266.2 217.4 266.6 218.312 267.4C219.144 268.12 219.56 269.232 219.56 270.736C219.56 273.072 218.344 274.664 215.912 275.512L219.368 280.72L221.432 280.936C221.432 281.624 221.248 282.312 220.88 283H217.4L212.696 275.824H211.928L211.856 280.72L213.608 280.912C213.608 281.568 213.424 282.264 213.056 283H207.128L206.912 281.68C207.872 281.296 208.544 281.064 208.928 280.984C208.896 279.016 208.856 276.64 208.808 273.856C208.76 271.072 208.728 269.208 208.712 268.264L206.72 267.664C206.736 267.296 206.808 266.808 206.936 266.2H212.744ZM214.64 268.768C214.144 268.656 213.48 268.6 212.648 268.6H211.976C211.944 270.808 211.928 272.464 211.928 273.568L213.104 273.544C214.048 273.528 214.792 273.336 215.336 272.968C215.896 272.584 216.176 271.848 216.176 270.76C216.176 269.672 215.664 269.008 214.64 268.768ZM227.726 268.6C227.726 270.424 227.71 271.992 227.678 273.304H230.126L230.366 271.648C231.182 271.648 231.974 271.848 232.742 272.248V277.048L231.158 277.12C230.774 276.544 230.55 276.04 230.486 275.608H227.654C227.622 277.848 227.606 279.536 227.606 280.672H231.71L232.238 278.584C233.23 278.584 233.982 278.632 234.494 278.728C234.734 279.64 234.854 280.472 234.854 281.224C234.854 281.96 234.83 282.552 234.782 283H222.878L222.662 281.68C223.702 281.28 224.374 281.048 224.678 280.984C224.662 280.04 224.646 278.712 224.63 277C224.566 273.16 224.51 270.256 224.462 268.288L222.47 267.664L222.662 266.2H234.446C234.494 266.632 234.518 267.176 234.518 267.832C234.518 268.472 234.398 269.368 234.158 270.52C233.662 270.68 232.91 270.76 231.902 270.76L231.35 268.6H227.726ZM248.479 266.464L248.503 266.704C248.503 267.36 248.399 267.92 248.191 268.384C247.983 268.544 247.655 268.672 247.207 268.768L251.215 280.624L253.495 280.912C253.495 281.568 253.311 282.264 252.943 283H247.111L246.895 281.68C247.567 281.424 248.007 281.256 248.215 281.176L247.255 278.464H241.855C241.375 279.888 241.119 280.632 241.087 280.696L242.743 280.912C242.743 281.248 242.679 281.64 242.551 282.088C242.423 282.52 242.303 282.824 242.191 283H236.359L236.143 281.68C236.863 281.376 237.511 281.152 238.087 281.008L242.119 268.672C241.047 268.512 240.239 268.304 239.695 268.048C239.695 267.584 239.767 267.176 239.911 266.824C240.247 266.712 241.031 266.584 242.263 266.44C243.511 266.28 244.695 266.2 245.815 266.2C246.951 266.2 247.839 266.288 248.479 266.464ZM245.383 273.064L244.687 269.896H244.447L243.679 273.208L242.551 276.208H246.559L245.383 273.064ZM265.214 271.624L264.47 271.6L263.774 268.72C262.846 268.56 262.15 268.48 261.686 268.48C260.774 268.48 259.75 268.664 258.614 269.032C258.278 269.656 258.014 270.456 257.822 271.432C257.63 272.408 257.534 273.328 257.534 274.192C257.534 278.608 258.806 280.816 261.35 280.816C262.438 280.816 263.302 280.656 263.942 280.336L264.446 277.408C265.454 277.408 266.222 277.464 266.75 277.576C267.006 279.32 267.134 280.736 267.134 281.824C266.75 282.112 265.974 282.432 264.806 282.784C263.654 283.136 262.518 283.312 261.398 283.312C256.63 283.312 254.246 280.368 254.246 274.48C254.246 271.68 254.822 269.552 255.974 268.096C257.142 266.64 258.998 265.912 261.542 265.912C262.806 265.912 263.926 266.096 264.902 266.464C265.766 266.784 266.502 267.136 267.11 267.52C267.11 268.608 266.99 269.92 266.75 271.456C266.302 271.568 265.79 271.624 265.214 271.624ZM268.809 270.568C268.553 269.464 268.425 268.592 268.425 267.952C268.425 267.312 268.449 266.728 268.497 266.2H282.441C282.505 266.968 282.537 267.488 282.537 267.76C282.537 268.448 282.409 269.384 282.153 270.568C281.689 270.696 280.929 270.76 279.873 270.76L279.321 268.336H277.281C277.265 268.944 277.193 273.064 277.065 280.696L278.793 280.912C278.793 281.648 278.609 282.344 278.241 283H272.409L272.193 281.68C273.297 281.264 273.993 281.032 274.281 280.984C274.281 280.92 274.185 276.712 273.993 268.36H271.617L271.089 270.712C270.145 270.712 269.385 270.664 268.809 270.568ZM293.526 280.768C294.534 280.768 295.038 280 295.038 278.464C295.038 277.888 294.95 274.496 294.774 268.288L292.782 267.664L292.974 266.2H299.214C299.502 266.824 299.646 267.456 299.646 268.096C298.686 268.256 298.15 268.336 298.038 268.336C298.022 269.264 298.006 270.92 297.99 273.304C297.99 275.688 297.974 277.56 297.942 278.92C297.91 280.264 297.558 281.336 296.886 282.136C296.214 282.92 295.238 283.312 293.958 283.312C293.03 283.312 292.102 283.168 291.174 282.88C290.262 282.592 289.606 282.256 289.206 281.872C289.222 280.704 289.35 279.376 289.59 277.888C290.23 277.712 291.014 277.624 291.942 277.624L292.398 280.672C292.654 280.736 293.03 280.768 293.526 280.768ZM307.275 280.696C309.131 280.696 310.059 279.904 310.059 278.32C310.059 277.648 309.707 277.08 309.003 276.616C308.491 276.264 307.787 275.888 306.891 275.488C306.011 275.072 305.347 274.744 304.899 274.504C304.467 274.264 303.963 273.928 303.387 273.496C302.283 272.648 301.731 271.592 301.731 270.328C301.731 269.064 302.219 268.016 303.195 267.184C304.187 266.336 305.523 265.912 307.203 265.912C308.883 265.912 310.675 266.448 312.579 267.52C312.579 268.672 312.459 269.92 312.219 271.264C311.707 271.424 310.947 271.504 309.939 271.504L309.243 268.648C308.651 268.472 308.003 268.384 307.299 268.384C306.595 268.384 306.051 268.536 305.667 268.84C305.283 269.144 305.091 269.6 305.091 270.208C305.091 270.8 305.387 271.336 305.979 271.816C306.587 272.28 307.315 272.712 308.163 273.112C309.011 273.496 309.595 273.768 309.915 273.928C310.235 274.088 310.643 274.328 311.139 274.648C311.635 274.968 312.011 275.272 312.267 275.56C312.923 276.328 313.251 277.184 313.251 278.128C313.251 279.792 312.699 281.072 311.595 281.968C310.491 282.864 309.051 283.312 307.275 283.312C306.331 283.312 305.291 283.152 304.155 282.832C303.035 282.496 302.083 282.072 301.299 281.56C301.331 280.584 301.459 279.264 301.683 277.6C302.323 277.472 303.091 277.408 303.987 277.408L304.491 280.288C305.371 280.56 306.299 280.696 307.275 280.696ZM321.801 266.392C319.817 271 318.825 274.552 318.825 277.048C318.825 279.544 319.817 283.08 321.801 287.656L322.233 288.712C321.753 289.256 321.097 289.592 320.265 289.72C319.193 288.312 318.153 286.344 317.145 283.816C316.153 281.304 315.657 279.04 315.657 277.024C315.657 275.008 316.153 272.744 317.145 270.232C318.153 267.704 319.193 265.736 320.265 264.328C321.065 264.536 321.721 264.872 322.233 265.336L321.801 266.392ZM332.053 265.672C332.149 266.024 332.197 266.392 332.197 266.776C332.197 267.144 332.157 267.44 332.077 267.664C328.765 267.92 326.845 269.736 326.317 273.112C327.421 272.52 328.421 272.224 329.317 272.224C330.965 272.224 332.277 272.664 333.253 273.544C334.229 274.408 334.717 275.76 334.717 277.6C334.717 279.44 334.213 280.848 333.205 281.824C332.197 282.8 330.869 283.288 329.221 283.288C328.085 283.288 327.101 283.048 326.269 282.568C325.437 282.088 324.797 281.432 324.349 280.6C323.469 279.016 323.029 277.064 323.029 274.744C323.029 273.256 323.301 271.92 323.845 270.736C324.405 269.536 325.133 268.584 326.029 267.88C327.853 266.408 329.861 265.672 332.053 265.672ZM326.293 275.896L326.365 277.288V277.336C326.461 278.44 326.749 279.352 327.229 280.072C327.709 280.776 328.333 281.128 329.101 281.128C330.733 281.128 331.549 279.832 331.549 277.24C331.549 276.264 331.357 275.552 330.973 275.104C330.605 274.656 329.997 274.432 329.149 274.432C328.317 274.432 327.365 274.784 326.293 275.488V275.896ZM341.883 269.752C343.867 269.752 345.315 270.328 346.227 271.48C347.139 272.616 347.595 274.24 347.595 276.352C347.595 278.448 347.139 280.128 346.227 281.392C345.315 282.656 343.859 283.288 341.859 283.288C339.859 283.288 338.427 282.728 337.563 281.608C336.699 280.472 336.267 278.76 336.267 276.472C336.267 271.992 338.139 269.752 341.883 269.752ZM340.659 280.84C340.995 281.016 341.403 281.104 341.883 281.104C342.363 281.104 342.763 281.016 343.083 280.84C343.419 280.664 343.667 280.448 343.827 280.192C344.003 279.936 344.139 279.576 344.235 279.112C344.363 278.504 344.427 277.616 344.427 276.448C344.427 273.44 343.579 271.936 341.883 271.936C341.419 271.936 341.019 272.032 340.683 272.224C340.347 272.416 340.091 272.64 339.915 272.896C339.739 273.152 339.603 273.496 339.507 273.928C339.379 274.504 339.315 275.192 339.315 275.992C339.315 276.776 339.323 277.368 339.339 277.768C339.371 278.152 339.427 278.584 339.507 279.064C339.603 279.528 339.739 279.896 339.915 280.168C340.091 280.424 340.339 280.648 340.659 280.84ZM348.827 270.04C348.827 268.52 349.187 267.32 349.907 266.44C350.643 265.544 351.731 265.096 353.171 265.096C354.627 265.096 355.731 265.528 356.483 266.392C357.235 267.256 357.611 268.432 357.611 269.92C357.611 271.392 357.235 272.6 356.483 273.544C355.731 274.472 354.635 274.936 353.195 274.936C350.283 274.936 348.827 273.304 348.827 270.04ZM358.451 278.416C358.451 276.896 358.811 275.696 359.531 274.816C360.267 273.92 361.355 273.472 362.795 273.472C364.251 273.472 365.347 273.904 366.083 274.768C366.835 275.632 367.211 276.808 367.211 278.296C367.211 279.784 366.835 280.992 366.083 281.92C365.347 282.848 364.259 283.312 362.819 283.312C359.907 283.312 358.451 281.68 358.451 278.416ZM364.883 266.752L352.763 283.456C352.155 283.168 351.587 282.776 351.059 282.28L362.555 265.24C363.515 265.64 364.291 266.144 364.883 266.752ZM352.043 272.368C352.139 272.528 352.283 272.672 352.475 272.8C352.667 272.928 352.915 272.992 353.219 272.992C353.539 272.992 353.803 272.912 354.011 272.752C354.235 272.592 354.387 272.344 354.467 272.008C354.595 271.496 354.659 270.952 354.659 270.376C354.659 269.784 354.643 269.352 354.611 269.08C354.595 268.808 354.547 268.488 354.467 268.12C354.307 267.4 353.883 267.04 353.195 267.04C352.667 267.04 352.283 267.24 352.043 267.64C351.851 267.96 351.747 268.344 351.731 268.792C351.715 269.24 351.707 269.656 351.707 270.04C351.707 270.408 351.707 270.696 351.707 270.904C351.723 271.096 351.755 271.344 351.803 271.648C351.867 271.952 351.947 272.192 352.043 272.368ZM361.667 280.72C361.763 280.88 361.907 281.024 362.099 281.152C362.291 281.28 362.523 281.344 362.795 281.344C363.083 281.344 363.323 281.28 363.515 281.152C363.707 281.024 363.851 280.88 363.947 280.72C364.043 280.56 364.123 280.336 364.187 280.048C364.251 279.68 364.283 279.232 364.283 278.704C364.283 278.16 364.267 277.752 364.235 277.48C364.219 277.192 364.171 276.872 364.091 276.52C363.931 275.784 363.507 275.416 362.819 275.416C362.291 275.416 361.907 275.616 361.667 276.016C361.475 276.336 361.371 276.72 361.355 277.168C361.339 277.616 361.331 278.024 361.331 278.392C361.331 278.76 361.331 279.048 361.331 279.256C361.347 279.464 361.379 279.72 361.427 280.024C361.491 280.312 361.571 280.544 361.667 280.72ZM369.097 287.656C371.081 283.08 372.073 279.544 372.073 277.048C372.073 274.552 371.081 271 369.097 266.392L368.665 265.336C369.177 264.872 369.833 264.536 370.633 264.328C371.705 265.736 372.737 267.704 373.729 270.232C374.737 272.744 375.241 275.008 375.241 277.024C375.241 279.04 374.737 281.304 373.729 283.816C372.737 286.344 371.705 288.312 370.633 289.72C369.801 289.592 369.145 289.256 368.665 288.712L369.097 287.656Z" fill="#7906D2"/>
<path d="M193.36 270.777C193.099 270.681 192.839 270.59 192.578 270.504C192.621 270.306 192.66 270.108 192.699 269.91C193.292 266.717 192.901 264.151 191.584 263.305C190.315 262.496 188.244 263.337 186.15 265.362C185.942 265.56 185.74 265.769 185.546 265.978C185.416 265.838 185.281 265.699 185.146 265.565C182.95 263.401 180.749 262.49 179.432 263.342C178.167 264.156 177.791 266.572 178.322 269.594C178.375 269.894 178.433 270.188 178.5 270.488C178.192 270.585 177.888 270.692 177.603 270.804C175.026 271.795 173.177 273.359 173.177 274.977C173.177 276.649 175.146 278.325 177.825 279.343C178.042 279.423 178.259 279.504 178.481 279.573C178.409 279.895 178.346 280.211 178.288 280.538C177.781 283.511 178.177 285.868 179.442 286.677C180.745 287.512 182.936 286.655 185.069 284.582C185.238 284.416 185.407 284.245 185.575 284.062C185.788 284.293 186.01 284.512 186.232 284.727C188.297 286.698 190.339 287.496 191.598 286.687C192.901 285.852 193.326 283.318 192.776 280.232C192.732 279.997 192.684 279.756 192.631 279.509C192.786 279.461 192.935 279.407 193.085 279.354C195.869 278.331 197.887 276.675 197.887 274.977C197.887 273.354 195.985 271.779 193.36 270.777ZM186.83 266.23C188.626 264.494 190.3 263.814 191.063 264.301C191.878 264.821 192.192 266.921 191.68 269.679C191.647 269.861 191.613 270.038 191.569 270.215C190.498 269.947 189.412 269.754 188.321 269.647C187.694 268.651 187.009 267.697 186.266 266.803C186.454 266.604 186.637 266.417 186.83 266.23ZM181.246 277.757C181.493 278.224 181.744 278.69 182.009 279.145C181.256 279.054 180.508 278.92 179.77 278.743C179.982 277.972 180.247 277.174 180.556 276.359C180.778 276.831 181.005 277.297 181.246 277.757ZM179.784 271.313C180.479 271.142 181.218 271.002 181.985 270.895C181.729 271.34 181.478 271.795 181.242 272.256C181.005 272.711 180.774 273.177 180.556 273.649C180.252 272.851 179.997 272.068 179.784 271.313ZM181.107 275.004C181.425 274.265 181.773 273.542 182.139 272.829C182.506 272.117 182.902 271.426 183.317 270.745C184.041 270.686 184.779 270.654 185.532 270.654C186.285 270.654 187.028 270.686 187.747 270.745C188.157 271.42 188.548 272.111 188.92 272.818C189.292 273.526 189.639 274.249 189.967 274.983C189.644 275.722 189.296 276.45 188.925 277.168C188.558 277.881 188.167 278.572 187.757 279.257C187.038 279.316 186.29 279.343 185.532 279.343C184.774 279.343 184.041 279.316 183.331 279.268C182.911 278.588 182.516 277.891 182.144 277.179C181.773 276.466 181.43 275.743 181.107 275.004ZM189.822 277.747C190.069 277.275 190.3 276.799 190.527 276.316C190.836 277.093 191.106 277.881 191.343 278.69C190.595 278.877 189.837 279.022 189.074 279.118C189.335 278.668 189.581 278.207 189.822 277.747ZM190.517 273.649C190.29 273.177 190.059 272.706 189.818 272.245C189.581 271.79 189.335 271.34 189.079 270.895C189.856 271.002 190.599 271.147 191.294 271.324C191.072 272.117 190.812 272.888 190.517 273.649ZM185.542 267.622C186.048 268.233 186.526 268.876 186.97 269.54C186.015 269.492 185.054 269.492 184.099 269.54C184.572 268.849 185.059 268.206 185.542 267.622ZM179.943 264.339C180.754 263.814 182.554 264.564 184.451 266.428C184.572 266.546 184.692 266.674 184.818 266.803C184.07 267.697 183.38 268.651 182.747 269.647C181.657 269.754 180.576 269.942 179.504 270.204C179.442 269.931 179.388 269.653 179.335 269.374C178.882 266.781 179.181 264.826 179.943 264.339ZM178.761 278.459C178.558 278.395 178.361 278.325 178.163 278.25C177.135 277.891 175.967 277.324 175.122 276.579C174.635 276.204 174.307 275.625 174.215 274.977C174.215 273.997 175.74 272.743 177.941 271.892C178.216 271.785 178.496 271.688 178.776 271.597C179.104 272.76 179.499 273.901 179.958 275.004C179.495 276.124 179.094 277.281 178.761 278.459ZM184.388 283.709C183.592 284.518 182.67 285.161 181.666 285.6C181.131 285.884 180.513 285.911 179.963 285.67C179.195 285.177 178.877 283.286 179.311 280.741C179.364 280.441 179.422 280.141 179.49 279.847C180.571 280.104 181.662 280.281 182.767 280.372C183.404 281.373 184.104 282.332 184.852 283.232C184.697 283.398 184.543 283.559 184.388 283.709ZM185.571 282.407C185.078 281.818 184.586 281.164 184.108 280.463C184.572 280.484 185.049 280.495 185.532 280.495C186.029 280.495 186.517 280.484 186.999 280.457C186.555 281.138 186.077 281.786 185.571 282.407ZM191.878 284.014C191.835 284.668 191.545 285.278 191.082 285.691C190.315 286.184 188.679 285.541 186.912 283.859C186.71 283.666 186.507 283.457 186.299 283.243C187.038 282.338 187.718 281.379 188.336 280.372C189.441 280.27 190.541 280.082 191.627 279.809C191.676 280.029 191.719 280.248 191.758 280.463C191.994 281.62 192.033 282.825 191.878 284.014ZM192.757 278.256C192.621 278.304 192.486 278.352 192.346 278.395C192.009 277.227 191.594 276.086 191.116 274.977C191.579 273.884 191.97 272.76 192.298 271.608C192.549 271.688 192.79 271.774 193.022 271.86C195.271 272.717 196.849 273.992 196.849 274.967C196.849 276.016 195.165 277.372 192.757 278.256ZM185.532 277.452C186.753 277.452 187.742 276.354 187.742 274.999C187.742 273.643 186.753 272.545 185.532 272.545C184.311 272.545 183.322 273.643 183.322 274.999C183.322 276.354 184.311 277.452 185.532 277.452Z" fill="#7906D2"/>
</g>
<defs>
<linearGradient id="paint0_linear_196_334" x1="402.315" y1="66.9999" x2="419.515" y2="79.0505" gradientUnits="userSpaceOnUse">
<stop offset="0.122853" stop-color="#7906D2"/>
<stop offset="1" stop-color="#FF239A"/>
</linearGradient>
<linearGradient id="paint1_linear_196_334" x1="361" y1="145" x2="371.27" y2="158.239" gradientUnits="userSpaceOnUse">
<stop offset="0.122853" stop-color="#7906D2"/>
<stop offset="1" stop-color="#FF239A"/>
</linearGradient>
<linearGradient id="paint2_linear_196_334" x1="361" y1="223" x2="371.27" y2="236.239" gradientUnits="userSpaceOnUse">
<stop offset="0.122853" stop-color="#7906D2"/>
<stop offset="1" stop-color="#FF239A"/>
</linearGradient>
<linearGradient id="paint3_linear_196_334" x1="314" y1="301" x2="323.299" y2="314.405" gradientUnits="userSpaceOnUse">
<stop offset="0.122853" stop-color="#7906D2"/>
<stop offset="1" stop-color="#FF239A"/>
</linearGradient>
<clipPath id="clip0_196_334">
<rect width="164" height="25" fill="white" transform="translate(190 28)"/>
</clipPath>
<clipPath id="clip1_196_334">
<rect width="134" height="25" fill="white" transform="translate(205 106)"/>
</clipPath>
<clipPath id="clip2_196_334">
<rect width="235" height="25" fill="white" transform="translate(154 184)"/>
</clipPath>
<clipPath id="clip3_196_334">
<rect width="209" height="25" fill="white" transform="translate(167 262)"/>
</clipPath>
</defs>
</svg>
