<svg width="454" height="58" viewBox="0 0 454 58" fill="none" xmlns="http://www.w3.org/2000/svg">
<path d="M0 50.5C0 46.3579 3.35786 43 7.5 43H446.5C450.642 43 454 46.3579 454 50.5V50.5C454 54.6421 450.642 58 446.5 58H7.50001C3.35787 58 0 54.6421 0 50.5V50.5Z" fill="url(#paint0_linear_45_440)"/>
<g clip-path="url(#clip0_45_440)">
<path d="M145 5L147.159 26.5365L156.998 29L166.799 26.5365L169 5H145ZM164.463 10.1087L164.306 11.4702L164.25 12.0327H152.756L153.024 14.75H163.985L163.877 15.451L163.184 22.4375L163.128 22.9048L157.011 24.3933V24.4019H156.972L156.962 24.4048V24.4019H156.959L150.79 22.9019L150.417 18.7308H153.397L153.61 20.8423L156.959 21.6413H156.972L160.309 20.8452L160.682 17.424H156.962V17.4212H150.26L149.514 10.1087L149.458 9.40769H164.515L164.463 10.1087Z" fill="#7906D2"/>
<path d="M189.288 21.984L189.192 16.32H182.904C182.872 18.72 182.856 20.512 182.856 21.696L184.512 21.912C184.512 22.568 184.328 23.264 183.96 24H178.128L177.912 22.68C178.808 22.312 179.48 22.08 179.928 21.984C179.928 21.936 179.856 17.704 179.712 9.288L177.72 8.664L177.912 7.2H184.128C184.384 7.632 184.536 8.264 184.584 9.096C183.768 9.224 183.232 9.304 182.976 9.336C182.944 11.416 182.928 12.976 182.928 14.016H189.144L189.072 9.288L187.08 8.664L187.272 7.2H193.488C193.744 7.632 193.896 8.264 193.944 9.096C193.128 9.224 192.592 9.304 192.336 9.336L192.216 21.696L193.872 21.912C193.872 22.568 193.688 23.264 193.32 24H187.488L187.272 22.68C188.168 22.312 188.84 22.08 189.288 21.984ZM195.723 11.568C195.467 10.464 195.339 9.592 195.339 8.952C195.339 8.312 195.363 7.728 195.411 7.2H209.355C209.419 7.968 209.451 8.488 209.451 8.76C209.451 9.448 209.323 10.384 209.067 11.568C208.603 11.696 207.843 11.76 206.787 11.76L206.235 9.336H204.195C204.179 9.944 204.107 14.064 203.979 21.696L205.707 21.912C205.707 22.648 205.523 23.344 205.155 24H199.323L199.107 22.68C200.211 22.264 200.907 22.032 201.195 21.984C201.195 21.92 201.099 17.712 200.907 9.36H198.531L198.003 11.712C197.059 11.712 196.299 11.664 195.723 11.568ZM222.222 19.104L224.43 7.2H230.67C230.798 7.888 230.862 8.376 230.862 8.664C230.094 8.936 229.43 9.144 228.87 9.288L230.574 21.696L232.23 21.912C232.23 22.568 232.046 23.264 231.678 24H225.846L225.63 22.68C226.526 22.312 227.198 22.08 227.646 21.984L225.798 12.192L223.35 22.824H220.902L217.11 11.088L215.07 21.696L216.726 21.912C216.726 22.568 216.542 23.264 216.174 24H210.342L210.126 22.68C211.022 22.312 211.694 22.08 212.142 21.984L213.846 9.288L211.854 8.664L212.046 7.2H218.766L221.982 19.104H222.222ZM244.294 19.632C244.678 19.568 244.966 19.536 245.158 19.536C245.366 19.536 245.806 19.592 246.478 19.704C246.542 19.832 246.63 20.24 246.742 20.928C246.87 21.616 246.934 22.176 246.934 22.608C246.934 23.024 246.886 23.488 246.79 24H235.15L234.934 22.68C235.718 22.36 236.39 22.128 236.95 21.984C236.95 21.936 236.878 17.704 236.734 9.288L234.742 8.664L234.934 7.2H241.174C241.158 7.2 241.158 7.216 241.174 7.248C241.206 7.28 241.238 7.352 241.27 7.464C241.318 7.56 241.366 7.68 241.414 7.824C241.51 8.08 241.574 8.504 241.606 9.096C240.79 9.224 240.254 9.304 239.998 9.336C239.934 14.856 239.894 18.976 239.878 21.696H243.766L244.294 19.632ZM255.113 7.392C253.129 12 252.137 15.552 252.137 18.048C252.137 20.544 253.129 24.08 255.113 28.656L255.545 29.712C255.065 30.256 254.409 30.592 253.577 30.72C252.505 29.312 251.465 27.344 250.457 24.816C249.465 22.304 248.969 20.04 248.969 18.024C248.969 16.008 249.465 13.744 250.457 11.232C251.465 8.704 252.505 6.736 253.577 5.328C254.377 5.536 255.033 5.872 255.545 6.336L255.113 7.392ZM267.069 19.464C267.069 20.84 266.629 21.992 265.749 22.92C264.885 23.832 263.549 24.288 261.741 24.288C260.461 24.288 259.261 23.952 258.141 23.28C257.565 22.928 257.093 22.44 256.725 21.816C256.373 21.192 256.197 20.456 256.197 19.608C256.197 18.744 256.445 17.96 256.941 17.256C257.437 16.552 258.101 15.872 258.933 15.216C257.349 14.336 256.557 12.952 256.557 11.064C256.557 9.704 257.021 8.632 257.949 7.848C258.877 7.064 260.149 6.672 261.765 6.672C263.397 6.672 264.669 7.08 265.581 7.896C266.509 8.712 266.973 9.664 266.973 10.752C266.973 11.824 266.725 12.76 266.229 13.56C265.733 14.36 265.093 15.008 264.309 15.504C265.429 16.272 266.165 16.968 266.517 17.592C266.885 18.216 267.069 18.84 267.069 19.464ZM264.021 19.872C264.021 19.088 263.797 18.448 263.349 17.952C262.901 17.44 262.117 16.88 260.997 16.272C259.909 17.168 259.365 18.272 259.365 19.584C259.365 20.32 259.629 20.936 260.157 21.432C260.701 21.928 261.237 22.176 261.765 22.176C263.269 22.176 264.021 21.408 264.021 19.872ZM263.805 10.92C263.805 9.544 263.117 8.856 261.741 8.856C261.277 8.856 260.757 8.936 260.181 9.096C259.877 9.704 259.725 10.32 259.725 10.944C259.725 12.448 260.421 13.512 261.813 14.136C261.877 14.152 261.957 14.192 262.053 14.256C262.165 14.304 262.245 14.336 262.293 14.352C263.301 13.6 263.805 12.456 263.805 10.92ZM274.469 10.752C276.453 10.752 277.901 11.328 278.813 12.48C279.725 13.616 280.181 15.24 280.181 17.352C280.181 19.448 279.725 21.128 278.813 22.392C277.901 23.656 276.445 24.288 274.445 24.288C272.445 24.288 271.013 23.728 270.149 22.608C269.285 21.472 268.853 19.76 268.853 17.472C268.853 12.992 270.725 10.752 274.469 10.752ZM273.245 21.84C273.581 22.016 273.989 22.104 274.469 22.104C274.949 22.104 275.349 22.016 275.669 21.84C276.005 21.664 276.253 21.448 276.413 21.192C276.589 20.936 276.725 20.576 276.821 20.112C276.949 19.504 277.013 18.616 277.013 17.448C277.013 14.44 276.165 12.936 274.469 12.936C274.005 12.936 273.605 13.032 273.269 13.224C272.933 13.416 272.677 13.64 272.501 13.896C272.325 14.152 272.189 14.496 272.093 14.928C271.965 15.504 271.901 16.192 271.901 16.992C271.901 17.776 271.909 18.368 271.925 18.768C271.957 19.152 272.013 19.584 272.093 20.064C272.189 20.528 272.325 20.896 272.501 21.168C272.677 21.424 272.925 21.648 273.245 21.84ZM281.413 11.04C281.413 9.52 281.773 8.32 282.493 7.44C283.229 6.544 284.317 6.096 285.757 6.096C287.213 6.096 288.317 6.528 289.069 7.392C289.821 8.256 290.197 9.432 290.197 10.92C290.197 12.392 289.821 13.6 289.069 14.544C288.317 15.472 287.221 15.936 285.781 15.936C282.869 15.936 281.413 14.304 281.413 11.04ZM291.037 19.416C291.037 17.896 291.397 16.696 292.117 15.816C292.853 14.92 293.941 14.472 295.381 14.472C296.837 14.472 297.933 14.904 298.669 15.768C299.421 16.632 299.797 17.808 299.797 19.296C299.797 20.784 299.421 21.992 298.669 22.92C297.933 23.848 296.845 24.312 295.405 24.312C292.493 24.312 291.037 22.68 291.037 19.416ZM297.469 7.752L285.349 24.456C284.741 24.168 284.173 23.776 283.645 23.28L295.141 6.24C296.101 6.64 296.877 7.144 297.469 7.752ZM284.629 13.368C284.725 13.528 284.869 13.672 285.061 13.8C285.253 13.928 285.501 13.992 285.805 13.992C286.125 13.992 286.389 13.912 286.597 13.752C286.821 13.592 286.973 13.344 287.053 13.008C287.181 12.496 287.245 11.952 287.245 11.376C287.245 10.784 287.229 10.352 287.197 10.08C287.181 9.808 287.133 9.488 287.053 9.12C286.893 8.4 286.469 8.04 285.781 8.04C285.253 8.04 284.869 8.24 284.629 8.64C284.437 8.96 284.333 9.344 284.317 9.792C284.301 10.24 284.293 10.656 284.293 11.04C284.293 11.408 284.293 11.696 284.293 11.904C284.309 12.096 284.341 12.344 284.389 12.648C284.453 12.952 284.533 13.192 284.629 13.368ZM294.253 21.72C294.349 21.88 294.493 22.024 294.685 22.152C294.877 22.28 295.109 22.344 295.381 22.344C295.669 22.344 295.909 22.28 296.101 22.152C296.293 22.024 296.437 21.88 296.533 21.72C296.629 21.56 296.709 21.336 296.773 21.048C296.837 20.68 296.869 20.232 296.869 19.704C296.869 19.16 296.853 18.752 296.821 18.48C296.805 18.192 296.757 17.872 296.677 17.52C296.517 16.784 296.093 16.416 295.405 16.416C294.877 16.416 294.493 16.616 294.253 17.016C294.061 17.336 293.957 17.72 293.941 18.168C293.925 18.616 293.917 19.024 293.917 19.392C293.917 19.76 293.917 20.048 293.917 20.256C293.933 20.464 293.965 20.72 294.013 21.024C294.077 21.312 294.157 21.544 294.253 21.72ZM301.683 28.656C303.667 24.08 304.659 20.544 304.659 18.048C304.659 15.552 303.667 12 301.683 7.392L301.251 6.336C301.763 5.872 302.419 5.536 303.219 5.328C304.291 6.736 305.323 8.704 306.315 11.232C307.323 13.744 307.827 16.008 307.827 18.024C307.827 20.04 307.323 22.304 306.315 24.816C305.323 27.344 304.291 29.312 303.219 30.72C302.387 30.592 301.731 30.256 301.251 29.712L301.683 28.656Z" fill="#7906D2"/>
</g>
<defs>
<linearGradient id="paint0_linear_45_440" x1="357.315" y1="42.9999" x2="374.515" y2="55.0505" gradientUnits="userSpaceOnUse">
<stop offset="0.122853" stop-color="#7906D2"/>
<stop offset="1" stop-color="#FF239A"/>
</linearGradient>
<clipPath id="clip0_45_440">
<rect width="164" height="25" fill="white" transform="translate(145 4)"/>
</clipPath>
</defs>
</svg>
