<svg width="454" height="58" viewBox="0 0 454 58" fill="none" xmlns="http://www.w3.org/2000/svg">
<path d="M0 50.5C0 46.3579 3.35786 43 7.5 43H446.5C450.642 43 454 46.3579 454 50.5V50.5C454 54.6421 450.642 58 446.5 58H7.50001C3.35787 58 0 54.6421 0 50.5V50.5Z" fill="url(#paint0_linear_45_449)"/>
<g clip-path="url(#clip0_45_449)">
<path d="M145.44 21.768C146.448 21.768 146.952 21 146.952 19.464C146.952 18.888 146.864 15.496 146.688 9.288L144.696 8.664L144.888 7.2H151.128C151.416 7.824 151.56 8.456 151.56 9.096C150.6 9.256 150.064 9.336 149.952 9.336C149.936 10.264 149.92 11.92 149.904 14.304C149.904 16.688 149.888 18.56 149.856 19.92C149.824 21.264 149.472 22.336 148.8 23.136C148.128 23.92 147.152 24.312 145.872 24.312C144.944 24.312 144.016 24.168 143.088 23.88C142.176 23.592 141.52 23.256 141.12 22.872C141.136 21.704 141.264 20.376 141.504 18.888C142.144 18.712 142.928 18.624 143.856 18.624L144.312 21.672C144.568 21.736 144.944 21.768 145.44 21.768ZM164.589 7.464L164.613 7.704C164.613 8.36 164.509 8.92 164.301 9.384C164.093 9.544 163.765 9.672 163.317 9.768L167.325 21.624L169.605 21.912C169.605 22.568 169.421 23.264 169.053 24H163.221L163.005 22.68C163.677 22.424 164.117 22.256 164.325 22.176L163.365 19.464H157.965C157.485 20.888 157.229 21.632 157.197 21.696L158.853 21.912C158.853 22.248 158.789 22.64 158.661 23.088C158.533 23.52 158.413 23.824 158.301 24H152.469L152.253 22.68C152.973 22.376 153.621 22.152 154.197 22.008L158.229 9.672C157.157 9.512 156.349 9.304 155.805 9.048C155.805 8.584 155.877 8.176 156.021 7.824C156.357 7.712 157.141 7.584 158.373 7.44C159.621 7.28 160.805 7.2 161.925 7.2C163.061 7.2 163.949 7.288 164.589 7.464ZM161.493 14.064L160.797 10.896H160.557L159.789 14.208L158.661 17.208H162.669L161.493 14.064ZM176.905 19.512C177.193 18.52 178.265 15.12 180.121 9.312L177.985 8.664L178.177 7.2H184.393C184.681 7.776 184.833 8.408 184.849 9.096L183.361 9.312L178.585 24H175.393L170.233 9.312L168.097 8.664L168.289 7.2H174.505C174.793 7.776 174.945 8.408 174.961 9.096C174.273 9.208 173.801 9.28 173.545 9.312L176.905 19.512ZM196.511 7.464L196.535 7.704C196.535 8.36 196.431 8.92 196.223 9.384C196.015 9.544 195.687 9.672 195.239 9.768L199.247 21.624L201.527 21.912C201.527 22.568 201.343 23.264 200.975 24H195.143L194.927 22.68C195.599 22.424 196.039 22.256 196.247 22.176L195.287 19.464H189.887C189.407 20.888 189.151 21.632 189.119 21.696L190.775 21.912C190.775 22.248 190.711 22.64 190.583 23.088C190.455 23.52 190.335 23.824 190.223 24H184.391L184.175 22.68C184.895 22.376 185.543 22.152 186.119 22.008L190.151 9.672C189.079 9.512 188.271 9.304 187.727 9.048C187.727 8.584 187.799 8.176 187.943 7.824C188.279 7.712 189.063 7.584 190.295 7.44C191.543 7.28 192.727 7.2 193.847 7.2C194.983 7.2 195.871 7.288 196.511 7.464ZM193.415 14.064L192.719 10.896H192.479L191.711 14.208L190.583 17.208H194.591L193.415 14.064ZM208.853 21.696C210.709 21.696 211.637 20.904 211.637 19.32C211.637 18.648 211.285 18.08 210.581 17.616C210.069 17.264 209.365 16.888 208.469 16.488C207.589 16.072 206.925 15.744 206.477 15.504C206.045 15.264 205.541 14.928 204.965 14.496C203.861 13.648 203.309 12.592 203.309 11.328C203.309 10.064 203.797 9.016 204.773 8.184C205.765 7.336 207.101 6.912 208.781 6.912C210.461 6.912 212.253 7.448 214.157 8.52C214.157 9.672 214.037 10.92 213.797 12.264C213.285 12.424 212.525 12.504 211.517 12.504L210.821 9.648C210.229 9.472 209.581 9.384 208.877 9.384C208.173 9.384 207.629 9.536 207.245 9.84C206.861 10.144 206.669 10.6 206.669 11.208C206.669 11.8 206.965 12.336 207.557 12.816C208.165 13.28 208.893 13.712 209.741 14.112C210.589 14.496 211.173 14.768 211.493 14.928C211.813 15.088 212.221 15.328 212.717 15.648C213.213 15.968 213.589 16.272 213.845 16.56C214.501 17.328 214.829 18.184 214.829 19.128C214.829 20.792 214.277 22.072 213.173 22.968C212.069 23.864 210.629 24.312 208.853 24.312C207.909 24.312 206.869 24.152 205.733 23.832C204.613 23.496 203.661 23.072 202.877 22.56C202.909 21.584 203.037 20.264 203.261 18.6C203.901 18.472 204.669 18.408 205.565 18.408L206.069 21.288C206.949 21.56 207.877 21.696 208.853 21.696ZM227.003 12.624L226.259 12.6L225.563 9.72C224.635 9.56 223.939 9.48 223.475 9.48C222.563 9.48 221.539 9.664 220.403 10.032C220.067 10.656 219.803 11.456 219.611 12.432C219.419 13.408 219.323 14.328 219.323 15.192C219.323 19.608 220.595 21.816 223.139 21.816C224.227 21.816 225.091 21.656 225.731 21.336L226.235 18.408C227.243 18.408 228.011 18.464 228.539 18.576C228.795 20.32 228.923 21.736 228.923 22.824C228.539 23.112 227.763 23.432 226.595 23.784C225.443 24.136 224.307 24.312 223.187 24.312C218.419 24.312 216.035 21.368 216.035 15.48C216.035 12.68 216.611 10.552 217.763 9.096C218.931 7.64 220.787 6.912 223.331 6.912C224.595 6.912 225.715 7.096 226.691 7.464C227.555 7.784 228.291 8.136 228.899 8.52C228.899 9.608 228.779 10.92 228.539 12.456C228.091 12.568 227.579 12.624 227.003 12.624ZM236.478 7.2C239.278 7.2 241.134 7.6 242.046 8.4C242.878 9.12 243.294 10.232 243.294 11.736C243.294 14.072 242.078 15.664 239.646 16.512L243.102 21.72L245.166 21.936C245.166 22.624 244.982 23.312 244.614 24H241.134L236.43 16.824H235.662L235.59 21.72L237.342 21.912C237.342 22.568 237.158 23.264 236.79 24H230.862L230.646 22.68C231.606 22.296 232.278 22.064 232.662 21.984C232.63 20.016 232.59 17.64 232.542 14.856C232.494 12.072 232.462 10.208 232.446 9.264L230.454 8.664C230.47 8.296 230.542 7.808 230.67 7.2H236.478ZM238.374 9.768C237.878 9.656 237.214 9.6 236.382 9.6H235.71C235.678 11.808 235.662 13.464 235.662 14.568L236.838 14.544C237.782 14.528 238.526 14.336 239.07 13.968C239.63 13.584 239.91 12.848 239.91 11.76C239.91 10.672 239.398 10.008 238.374 9.768ZM253.236 7.2C253.22 7.2 253.22 7.216 253.236 7.248C253.268 7.28 253.3 7.352 253.332 7.464C253.38 7.56 253.428 7.68 253.476 7.824C253.572 8.08 253.636 8.504 253.668 9.096C252.852 9.224 252.316 9.304 252.06 9.336L251.94 21.696L253.596 21.912C253.596 22.568 253.412 23.264 253.044 24H247.212L246.996 22.68C247.892 22.312 248.564 22.08 249.012 21.984C248.996 21.04 248.972 19.712 248.94 18C248.892 14.16 248.844 11.256 248.796 9.288L246.804 8.664L246.996 7.2H253.236ZM262.186 7.2C264.218 7.2 265.73 7.552 266.722 8.256C267.714 8.96 268.21 10.24 268.21 12.096C268.21 13.648 267.73 14.944 266.77 15.984C265.81 17.008 264.274 17.52 262.162 17.52C261.474 17.52 260.93 17.512 260.53 17.496L260.482 21.72L262.234 21.912C262.234 22.616 262.05 23.312 261.682 24H255.754L255.538 22.68C256.37 22.344 257.042 22.112 257.554 21.984C257.554 21.936 257.482 17.704 257.338 9.288C257.082 9.224 256.418 9.016 255.346 8.664L255.538 7.2H262.186ZM261.658 15.24C262.73 15.224 263.562 14.928 264.154 14.352C264.746 13.776 265.042 13.032 265.042 12.12C265.042 11.208 264.778 10.56 264.25 10.176C263.738 9.776 262.93 9.576 261.826 9.576C261.394 9.576 260.986 9.584 260.602 9.6C260.57 12.128 260.554 14.016 260.554 15.264L261.658 15.24ZM269.27 11.568C269.014 10.464 268.886 9.592 268.886 8.952C268.886 8.312 268.91 7.728 268.958 7.2H282.902C282.966 7.968 282.998 8.488 282.998 8.76C282.998 9.448 282.87 10.384 282.614 11.568C282.15 11.696 281.39 11.76 280.334 11.76L279.782 9.336H277.742C277.726 9.944 277.654 14.064 277.526 21.696L279.254 21.912C279.254 22.648 279.07 23.344 278.702 24H272.87L272.654 22.68C273.758 22.264 274.454 22.032 274.742 21.984C274.742 21.92 274.646 17.712 274.454 9.36H272.078L271.55 11.712C270.606 11.712 269.846 11.664 269.27 11.568ZM291.137 7.392C289.153 12 288.161 15.552 288.161 18.048C288.161 20.544 289.153 24.08 291.137 28.656L291.569 29.712C291.089 30.256 290.433 30.592 289.601 30.72C288.529 29.312 287.489 27.344 286.48 24.816C285.488 22.304 284.993 20.04 284.993 18.024C284.993 16.008 285.488 13.744 286.48 11.232C287.489 8.704 288.529 6.736 289.601 5.328C290.401 5.536 291.057 5.872 291.569 6.336L291.137 7.392ZM300.885 11.04C301.013 11.12 301.181 11.336 301.389 11.688C301.597 12.024 301.701 12.264 301.701 12.408C301.701 12.552 301.693 12.664 301.677 12.744C300.797 15.56 299.765 18.664 298.581 22.056C297.413 25.448 296.789 27.24 296.709 27.432C295.717 27.304 294.981 27.048 294.501 26.664L298.437 13.224H294.981L294.429 15.984C294.237 16.016 293.949 16.032 293.565 16.032L292.173 15.864C291.837 14.856 291.669 13.736 291.669 12.504C291.669 12.152 291.717 11.664 291.813 11.04H300.885ZM308.945 10.752C310.929 10.752 312.377 11.328 313.289 12.48C314.201 13.616 314.657 15.24 314.657 17.352C314.657 19.448 314.201 21.128 313.289 22.392C312.377 23.656 310.921 24.288 308.921 24.288C306.921 24.288 305.489 23.728 304.625 22.608C303.761 21.472 303.329 19.76 303.329 17.472C303.329 12.992 305.201 10.752 308.945 10.752ZM307.721 21.84C308.057 22.016 308.465 22.104 308.945 22.104C309.425 22.104 309.825 22.016 310.145 21.84C310.481 21.664 310.729 21.448 310.889 21.192C311.065 20.936 311.201 20.576 311.297 20.112C311.425 19.504 311.489 18.616 311.489 17.448C311.489 14.44 310.641 12.936 308.945 12.936C308.481 12.936 308.081 13.032 307.745 13.224C307.409 13.416 307.153 13.64 306.977 13.896C306.801 14.152 306.665 14.496 306.569 14.928C306.441 15.504 306.377 16.192 306.377 16.992C306.377 17.776 306.385 18.368 306.401 18.768C306.433 19.152 306.489 19.584 306.569 20.064C306.665 20.528 306.801 20.896 306.977 21.168C307.153 21.424 307.401 21.648 307.721 21.84ZM315.89 11.04C315.89 9.52 316.25 8.32 316.97 7.44C317.706 6.544 318.794 6.096 320.234 6.096C321.69 6.096 322.794 6.528 323.546 7.392C324.298 8.256 324.674 9.432 324.674 10.92C324.674 12.392 324.298 13.6 323.546 14.544C322.794 15.472 321.698 15.936 320.258 15.936C317.346 15.936 315.89 14.304 315.89 11.04ZM325.514 19.416C325.514 17.896 325.874 16.696 326.594 15.816C327.33 14.92 328.418 14.472 329.858 14.472C331.314 14.472 332.41 14.904 333.146 15.768C333.898 16.632 334.274 17.808 334.274 19.296C334.274 20.784 333.898 21.992 333.146 22.92C332.41 23.848 331.322 24.312 329.882 24.312C326.97 24.312 325.514 22.68 325.514 19.416ZM331.946 7.752L319.826 24.456C319.218 24.168 318.65 23.776 318.122 23.28L329.618 6.24C330.578 6.64 331.354 7.144 331.946 7.752ZM319.106 13.368C319.202 13.528 319.346 13.672 319.538 13.8C319.73 13.928 319.978 13.992 320.282 13.992C320.602 13.992 320.866 13.912 321.074 13.752C321.298 13.592 321.45 13.344 321.53 13.008C321.658 12.496 321.722 11.952 321.722 11.376C321.722 10.784 321.706 10.352 321.674 10.08C321.658 9.808 321.61 9.488 321.53 9.12C321.37 8.4 320.946 8.04 320.258 8.04C319.73 8.04 319.346 8.24 319.106 8.64C318.914 8.96 318.81 9.344 318.794 9.792C318.778 10.24 318.77 10.656 318.77 11.04C318.77 11.408 318.77 11.696 318.77 11.904C318.786 12.096 318.818 12.344 318.866 12.648C318.93 12.952 319.01 13.192 319.106 13.368ZM328.73 21.72C328.826 21.88 328.97 22.024 329.162 22.152C329.354 22.28 329.586 22.344 329.858 22.344C330.146 22.344 330.386 22.28 330.578 22.152C330.77 22.024 330.914 21.88 331.01 21.72C331.106 21.56 331.186 21.336 331.25 21.048C331.314 20.68 331.346 20.232 331.346 19.704C331.346 19.16 331.33 18.752 331.298 18.48C331.282 18.192 331.234 17.872 331.154 17.52C330.994 16.784 330.57 16.416 329.882 16.416C329.354 16.416 328.97 16.616 328.73 17.016C328.538 17.336 328.434 17.72 328.418 18.168C328.402 18.616 328.394 19.024 328.394 19.392C328.394 19.76 328.394 20.048 328.394 20.256C328.41 20.464 328.442 20.72 328.49 21.024C328.554 21.312 328.634 21.544 328.73 21.72ZM336.159 28.656C338.143 24.08 339.135 20.544 339.135 18.048C339.135 15.552 338.143 12 336.159 7.392L335.727 6.336C336.239 5.872 336.895 5.536 337.695 5.328C338.767 6.736 339.799 8.704 340.791 11.232C341.799 13.744 342.303 16.008 342.303 18.024C342.303 20.04 341.799 22.304 340.791 24.816C339.799 27.344 338.767 29.312 337.695 30.72C336.863 30.592 336.207 30.256 335.727 29.712L336.159 28.656Z" fill="#7906D2"/>
<path d="M109 3.5V27.5H133V3.5H109ZM122.061 22.2174C122.061 24.5531 120.69 25.6194 118.692 25.6194C116.887 25.6194 115.842 24.6877 115.306 23.5571L117.144 22.448C117.498 23.0746 117.819 23.6051 118.596 23.6051C119.335 23.6051 119.806 23.3154 119.806 22.1857V14.5194H122.061V22.2174ZM127.396 25.6194C125.301 25.6194 123.946 24.6234 123.287 23.3154L125.125 22.2551C125.607 23.0429 126.239 23.6266 127.348 23.6266C128.28 23.6266 128.881 23.1603 128.881 22.5123C128.881 21.7409 128.269 21.4674 127.236 21.0123L126.673 20.7714C125.045 20.0806 123.968 19.2071 123.968 17.3694C123.968 15.6766 125.259 14.3909 127.268 14.3909C128.704 14.3909 129.733 14.8889 130.472 16.196L128.715 17.3214C128.329 16.6306 127.911 16.3571 127.263 16.3571C126.605 16.3571 126.187 16.7754 126.187 17.3214C126.187 17.9969 126.605 18.2694 127.574 18.6929L128.137 18.9337C130.055 19.7531 131.131 20.5949 131.131 22.4797C131.131 24.5051 129.535 25.6186 127.397 25.6186L127.396 25.6194Z" fill="#7906D2"/>
</g>
<defs>
<linearGradient id="paint0_linear_45_449" x1="316" y1="43" x2="326.27" y2="56.2388" gradientUnits="userSpaceOnUse">
<stop offset="0.122853" stop-color="#7906D2"/>
<stop offset="1" stop-color="#FF239A"/>
</linearGradient>
<clipPath id="clip0_45_449">
<rect width="235" height="25" fill="white" transform="translate(109 4)"/>
</clipPath>
</defs>
</svg>
