<svg width="454" height="58" viewBox="0 0 454 58" fill="none" xmlns="http://www.w3.org/2000/svg">
<path d="M0 50.5C0 46.3579 3.35786 43 7.5 43H446.5C450.642 43 454 46.3579 454 50.5V50.5C454 54.6421 450.642 58 446.5 58H7.50001C3.35787 58 0 54.6421 0 50.5V50.5Z" fill="url(#paint0_linear_45_455)"/>
<g clip-path="url(#clip0_45_455)">
<path d="M167.744 8.2C170.544 8.2 172.4 8.6 173.312 9.4C174.144 10.12 174.56 11.232 174.56 12.736C174.56 15.072 173.344 16.664 170.912 17.512L174.368 22.72L176.432 22.936C176.432 23.624 176.248 24.312 175.88 25H172.4L167.696 17.824H166.928L166.856 22.72L168.608 22.912C168.608 23.568 168.424 24.264 168.056 25H162.128L161.912 23.68C162.872 23.296 163.544 23.064 163.928 22.984C163.896 21.016 163.856 18.64 163.808 15.856C163.76 13.072 163.728 11.208 163.712 10.264L161.72 9.664C161.736 9.296 161.808 8.808 161.936 8.2H167.744ZM169.64 10.768C169.144 10.656 168.48 10.6 167.648 10.6H166.976C166.944 12.808 166.928 14.464 166.928 15.568L168.104 15.544C169.048 15.528 169.792 15.336 170.336 14.968C170.896 14.584 171.176 13.848 171.176 12.76C171.176 11.672 170.664 11.008 169.64 10.768ZM182.726 10.6C182.726 12.424 182.71 13.992 182.678 15.304H185.126L185.366 13.648C186.182 13.648 186.974 13.848 187.742 14.248V19.048L186.158 19.12C185.774 18.544 185.55 18.04 185.486 17.608H182.654C182.622 19.848 182.606 21.536 182.606 22.672H186.71L187.238 20.584C188.23 20.584 188.982 20.632 189.494 20.728C189.734 21.64 189.854 22.472 189.854 23.224C189.854 23.96 189.83 24.552 189.782 25H177.878L177.662 23.68C178.702 23.28 179.374 23.048 179.678 22.984C179.662 22.04 179.646 20.712 179.63 19C179.566 15.16 179.51 12.256 179.462 10.288L177.47 9.664L177.662 8.2H189.446C189.494 8.632 189.518 9.176 189.518 9.832C189.518 10.472 189.398 11.368 189.158 12.52C188.662 12.68 187.91 12.76 186.902 12.76L186.35 10.6H182.726ZM203.479 8.464L203.503 8.704C203.503 9.36 203.399 9.92 203.191 10.384C202.983 10.544 202.655 10.672 202.207 10.768L206.215 22.624L208.495 22.912C208.495 23.568 208.311 24.264 207.943 25H202.111L201.895 23.68C202.567 23.424 203.007 23.256 203.215 23.176L202.255 20.464H196.855C196.375 21.888 196.119 22.632 196.087 22.696L197.743 22.912C197.743 23.248 197.679 23.64 197.551 24.088C197.423 24.52 197.303 24.824 197.191 25H191.359L191.143 23.68C191.863 23.376 192.511 23.152 193.087 23.008L197.119 10.672C196.047 10.512 195.239 10.304 194.695 10.048C194.695 9.584 194.767 9.176 194.911 8.824C195.247 8.712 196.031 8.584 197.263 8.44C198.511 8.28 199.695 8.2 200.815 8.2C201.951 8.2 202.839 8.288 203.479 8.464ZM200.383 15.064L199.687 11.896H199.447L198.679 15.208L197.551 18.208H201.559L200.383 15.064ZM220.214 13.624L219.47 13.6L218.774 10.72C217.846 10.56 217.15 10.48 216.686 10.48C215.774 10.48 214.75 10.664 213.614 11.032C213.278 11.656 213.014 12.456 212.822 13.432C212.63 14.408 212.534 15.328 212.534 16.192C212.534 20.608 213.806 22.816 216.35 22.816C217.438 22.816 218.302 22.656 218.942 22.336L219.446 19.408C220.454 19.408 221.222 19.464 221.75 19.576C222.006 21.32 222.134 22.736 222.134 23.824C221.75 24.112 220.974 24.432 219.806 24.784C218.654 25.136 217.518 25.312 216.398 25.312C211.63 25.312 209.246 22.368 209.246 16.48C209.246 13.68 209.822 11.552 210.974 10.096C212.142 8.64 213.998 7.912 216.542 7.912C217.806 7.912 218.926 8.096 219.902 8.464C220.766 8.784 221.502 9.136 222.11 9.52C222.11 10.608 221.99 11.92 221.75 13.456C221.302 13.568 220.79 13.624 220.214 13.624ZM223.809 12.568C223.553 11.464 223.425 10.592 223.425 9.952C223.425 9.312 223.449 8.728 223.497 8.2H237.441C237.505 8.968 237.537 9.488 237.537 9.76C237.537 10.448 237.409 11.384 237.153 12.568C236.689 12.696 235.929 12.76 234.873 12.76L234.321 10.336H232.281C232.265 10.944 232.193 15.064 232.065 22.696L233.793 22.912C233.793 23.648 233.609 24.344 233.241 25H227.409L227.193 23.68C228.297 23.264 228.993 23.032 229.281 22.984C229.281 22.92 229.185 18.712 228.993 10.36H226.617L226.089 12.712C225.145 12.712 224.385 12.664 223.809 12.568ZM248.526 22.768C249.534 22.768 250.038 22 250.038 20.464C250.038 19.888 249.95 16.496 249.774 10.288L247.782 9.664L247.974 8.2H254.214C254.502 8.824 254.646 9.456 254.646 10.096C253.686 10.256 253.15 10.336 253.038 10.336C253.022 11.264 253.006 12.92 252.99 15.304C252.99 17.688 252.974 19.56 252.942 20.92C252.91 22.264 252.558 23.336 251.886 24.136C251.214 24.92 250.238 25.312 248.958 25.312C248.03 25.312 247.102 25.168 246.174 24.88C245.262 24.592 244.606 24.256 244.206 23.872C244.222 22.704 244.35 21.376 244.59 19.888C245.23 19.712 246.014 19.624 246.942 19.624L247.398 22.672C247.654 22.736 248.03 22.768 248.526 22.768ZM262.275 22.696C264.131 22.696 265.059 21.904 265.059 20.32C265.059 19.648 264.707 19.08 264.003 18.616C263.491 18.264 262.787 17.888 261.891 17.488C261.011 17.072 260.347 16.744 259.899 16.504C259.467 16.264 258.963 15.928 258.387 15.496C257.283 14.648 256.731 13.592 256.731 12.328C256.731 11.064 257.219 10.016 258.195 9.184C259.187 8.336 260.523 7.912 262.203 7.912C263.883 7.912 265.675 8.448 267.579 9.52C267.579 10.672 267.459 11.92 267.219 13.264C266.707 13.424 265.947 13.504 264.939 13.504L264.243 10.648C263.651 10.472 263.003 10.384 262.299 10.384C261.595 10.384 261.051 10.536 260.667 10.84C260.283 11.144 260.091 11.6 260.091 12.208C260.091 12.8 260.387 13.336 260.979 13.816C261.587 14.28 262.315 14.712 263.163 15.112C264.011 15.496 264.595 15.768 264.915 15.928C265.235 16.088 265.643 16.328 266.139 16.648C266.635 16.968 267.011 17.272 267.267 17.56C267.923 18.328 268.251 19.184 268.251 20.128C268.251 21.792 267.699 23.072 266.595 23.968C265.491 24.864 264.051 25.312 262.275 25.312C261.331 25.312 260.291 25.152 259.155 24.832C258.035 24.496 257.083 24.072 256.299 23.56C256.331 22.584 256.459 21.264 256.683 19.6C257.323 19.472 258.091 19.408 258.987 19.408L259.491 22.288C260.371 22.56 261.299 22.696 262.275 22.696ZM276.801 8.392C274.817 13 273.825 16.552 273.825 19.048C273.825 21.544 274.817 25.08 276.801 29.656L277.233 30.712C276.753 31.256 276.097 31.592 275.265 31.72C274.193 30.312 273.153 28.344 272.145 25.816C271.153 23.304 270.657 21.04 270.657 19.024C270.657 17.008 271.153 14.744 272.145 12.232C273.153 9.704 274.193 7.736 275.265 6.328C276.065 6.536 276.721 6.872 277.233 7.336L276.801 8.392ZM287.053 7.672C287.149 8.024 287.197 8.392 287.197 8.776C287.197 9.144 287.157 9.44 287.077 9.664C283.765 9.92 281.845 11.736 281.317 15.112C282.421 14.52 283.421 14.224 284.317 14.224C285.965 14.224 287.277 14.664 288.253 15.544C289.229 16.408 289.717 17.76 289.717 19.6C289.717 21.44 289.213 22.848 288.205 23.824C287.197 24.8 285.869 25.288 284.221 25.288C283.085 25.288 282.101 25.048 281.269 24.568C280.437 24.088 279.797 23.432 279.349 22.6C278.469 21.016 278.029 19.064 278.029 16.744C278.029 15.256 278.301 13.92 278.845 12.736C279.405 11.536 280.133 10.584 281.029 9.88C282.853 8.408 284.861 7.672 287.053 7.672ZM281.293 17.896L281.365 19.288V19.336C281.461 20.44 281.749 21.352 282.229 22.072C282.709 22.776 283.333 23.128 284.101 23.128C285.733 23.128 286.549 21.832 286.549 19.24C286.549 18.264 286.357 17.552 285.973 17.104C285.605 16.656 284.997 16.432 284.149 16.432C283.317 16.432 282.365 16.784 281.293 17.488V17.896ZM296.883 11.752C298.867 11.752 300.315 12.328 301.227 13.48C302.139 14.616 302.595 16.24 302.595 18.352C302.595 20.448 302.139 22.128 301.227 23.392C300.315 24.656 298.859 25.288 296.859 25.288C294.859 25.288 293.427 24.728 292.563 23.608C291.699 22.472 291.267 20.76 291.267 18.472C291.267 13.992 293.139 11.752 296.883 11.752ZM295.659 22.84C295.995 23.016 296.403 23.104 296.883 23.104C297.363 23.104 297.763 23.016 298.083 22.84C298.419 22.664 298.667 22.448 298.827 22.192C299.003 21.936 299.139 21.576 299.235 21.112C299.363 20.504 299.427 19.616 299.427 18.448C299.427 15.44 298.579 13.936 296.883 13.936C296.419 13.936 296.019 14.032 295.683 14.224C295.347 14.416 295.091 14.64 294.915 14.896C294.739 15.152 294.603 15.496 294.507 15.928C294.379 16.504 294.315 17.192 294.315 17.992C294.315 18.776 294.323 19.368 294.339 19.768C294.371 20.152 294.427 20.584 294.507 21.064C294.603 21.528 294.739 21.896 294.915 22.168C295.091 22.424 295.339 22.648 295.659 22.84ZM303.827 12.04C303.827 10.52 304.187 9.32 304.907 8.44C305.643 7.544 306.731 7.096 308.171 7.096C309.627 7.096 310.731 7.528 311.483 8.392C312.235 9.256 312.611 10.432 312.611 11.92C312.611 13.392 312.235 14.6 311.483 15.544C310.731 16.472 309.635 16.936 308.195 16.936C305.283 16.936 303.827 15.304 303.827 12.04ZM313.451 20.416C313.451 18.896 313.811 17.696 314.531 16.816C315.267 15.92 316.355 15.472 317.795 15.472C319.251 15.472 320.347 15.904 321.083 16.768C321.835 17.632 322.211 18.808 322.211 20.296C322.211 21.784 321.835 22.992 321.083 23.92C320.347 24.848 319.259 25.312 317.819 25.312C314.907 25.312 313.451 23.68 313.451 20.416ZM319.883 8.752L307.763 25.456C307.155 25.168 306.587 24.776 306.059 24.28L317.555 7.24C318.515 7.64 319.291 8.144 319.883 8.752ZM307.043 14.368C307.139 14.528 307.283 14.672 307.475 14.8C307.667 14.928 307.915 14.992 308.219 14.992C308.539 14.992 308.803 14.912 309.011 14.752C309.235 14.592 309.387 14.344 309.467 14.008C309.595 13.496 309.659 12.952 309.659 12.376C309.659 11.784 309.643 11.352 309.611 11.08C309.595 10.808 309.547 10.488 309.467 10.12C309.307 9.4 308.883 9.04 308.195 9.04C307.667 9.04 307.283 9.24 307.043 9.64C306.851 9.96 306.747 10.344 306.731 10.792C306.715 11.24 306.707 11.656 306.707 12.04C306.707 12.408 306.707 12.696 306.707 12.904C306.723 13.096 306.755 13.344 306.803 13.648C306.867 13.952 306.947 14.192 307.043 14.368ZM316.667 22.72C316.763 22.88 316.907 23.024 317.099 23.152C317.291 23.28 317.523 23.344 317.795 23.344C318.083 23.344 318.323 23.28 318.515 23.152C318.707 23.024 318.851 22.88 318.947 22.72C319.043 22.56 319.123 22.336 319.187 22.048C319.251 21.68 319.283 21.232 319.283 20.704C319.283 20.16 319.267 19.752 319.235 19.48C319.219 19.192 319.171 18.872 319.091 18.52C318.931 17.784 318.507 17.416 317.819 17.416C317.291 17.416 316.907 17.616 316.667 18.016C316.475 18.336 316.371 18.72 316.355 19.168C316.339 19.616 316.331 20.024 316.331 20.392C316.331 20.76 316.331 21.048 316.331 21.256C316.347 21.464 316.379 21.72 316.427 22.024C316.491 22.312 316.571 22.544 316.667 22.72ZM324.097 29.656C326.081 25.08 327.073 21.544 327.073 19.048C327.073 16.552 326.081 13 324.097 8.392L323.665 7.336C324.177 6.872 324.833 6.536 325.633 6.328C326.705 7.736 327.737 9.704 328.729 12.232C329.737 14.744 330.241 17.008 330.241 19.024C330.241 21.04 329.737 23.304 328.729 25.816C327.737 28.344 326.705 30.312 325.633 31.72C324.801 31.592 324.145 31.256 323.665 30.712L324.097 29.656Z" fill="#7906D2"/>
<path d="M148.36 12.7775C148.099 12.6811 147.839 12.59 147.578 12.5043C147.621 12.3061 147.66 12.1079 147.699 11.9097C148.292 8.71699 147.901 6.15105 146.584 5.30467C145.315 4.49579 143.244 5.33681 141.15 7.3617C140.942 7.55991 140.74 7.76883 140.546 7.97774C140.416 7.83846 140.281 7.69919 140.146 7.56526C137.95 5.40109 135.749 4.49043 134.432 5.34217C133.167 6.15641 132.791 8.57235 133.322 11.5936C133.375 11.8936 133.433 12.1882 133.5 12.4882C133.192 12.5846 132.888 12.6918 132.603 12.8043C130.026 13.7953 128.177 15.3595 128.177 16.9773C128.177 18.6486 130.146 20.3253 132.825 21.3431C133.042 21.4235 133.259 21.5038 133.481 21.5734C133.409 21.8949 133.346 22.2109 133.288 22.5377C132.781 25.5107 133.177 27.8678 134.442 28.6766C135.745 29.5123 137.936 28.6552 140.069 26.5821C140.238 26.416 140.407 26.2446 140.575 26.0625C140.788 26.2928 141.01 26.5125 141.232 26.7267C143.297 28.6981 145.339 29.4962 146.598 28.6874C147.901 27.8517 148.326 25.3179 147.776 22.2323C147.732 21.9966 147.684 21.7556 147.631 21.5092C147.786 21.461 147.935 21.4074 148.085 21.3538C150.869 20.3307 152.887 18.6754 152.887 16.9773C152.887 15.3541 150.985 13.7792 148.36 12.7775ZM141.83 8.22951C143.626 6.49389 145.3 5.81357 146.063 6.30105C146.878 6.82066 147.192 8.92055 146.68 11.6793C146.647 11.8615 146.613 12.0382 146.569 12.215C145.498 11.9472 144.412 11.7543 143.321 11.6472C142.694 10.6508 142.009 9.69729 141.266 8.8027C141.454 8.60449 141.637 8.417 141.83 8.22951ZM136.246 19.7575C136.493 20.2235 136.744 20.6896 137.009 21.1449C136.256 21.0538 135.508 20.9199 134.77 20.7431C134.982 19.9717 135.247 19.1736 135.556 18.3593C135.778 18.8307 136.005 19.2968 136.246 19.7575ZM134.784 13.3132C135.479 13.1418 136.218 13.0025 136.985 12.8953C136.729 13.34 136.478 13.7953 136.242 14.256C136.005 14.7113 135.774 15.1774 135.556 15.6488C135.252 14.8506 134.997 14.0685 134.784 13.3132ZM136.107 17.004C136.425 16.2648 136.773 15.5416 137.139 14.8292C137.506 14.1167 137.902 13.4257 138.317 12.7453C139.041 12.6864 139.779 12.6543 140.532 12.6543C141.285 12.6543 142.028 12.6864 142.747 12.7453C143.157 13.4203 143.548 14.1113 143.92 14.8184C144.292 15.5256 144.639 16.2487 144.967 16.9826C144.644 17.7219 144.296 18.4504 143.925 19.1682C143.558 19.8807 143.167 20.5717 142.757 21.2574C142.038 21.3163 141.29 21.3431 140.532 21.3431C139.774 21.3431 139.041 21.3163 138.331 21.2681C137.911 20.5878 137.516 19.8914 137.144 19.1789C136.773 18.4665 136.43 17.7433 136.107 17.004ZM144.822 19.7468C145.069 19.2754 145.3 18.7986 145.527 18.3165C145.836 19.0932 146.106 19.8807 146.343 20.6896C145.595 20.8771 144.837 21.0217 144.074 21.1181C144.335 20.6681 144.581 20.2074 144.822 19.7468ZM145.517 15.6488C145.29 15.1774 145.059 14.706 144.818 14.2453C144.581 13.7899 144.335 13.34 144.079 12.8953C144.856 13.0025 145.599 13.1471 146.294 13.3239C146.072 14.1167 145.812 14.8881 145.517 15.6488ZM140.542 9.6223C141.048 10.233 141.526 10.8758 141.97 11.5401C141.015 11.4918 140.054 11.4918 139.099 11.5401C139.572 10.849 140.059 10.2062 140.542 9.6223ZM134.943 6.33854C135.754 5.81357 137.554 6.56353 139.451 8.42772C139.572 8.54557 139.692 8.67413 139.818 8.8027C139.07 9.69729 138.38 10.6508 137.747 11.6472C136.657 11.7543 135.576 11.9418 134.504 12.2043C134.442 11.9311 134.388 11.6525 134.335 11.374C133.882 8.78127 134.181 6.82602 134.943 6.33854ZM133.761 20.4592C133.558 20.3949 133.361 20.3253 133.163 20.2503C132.135 19.8914 130.967 19.3236 130.122 18.579C129.635 18.204 129.307 17.6254 129.215 16.9773C129.215 15.997 130.74 14.7435 132.941 13.8917C133.216 13.7846 133.496 13.6882 133.776 13.5971C134.104 14.7595 134.499 15.9005 134.958 17.004C134.495 18.1236 134.094 19.2807 133.761 20.4592ZM139.388 25.7089C138.592 26.5178 137.67 27.1606 136.666 27.5999C136.131 27.8838 135.513 27.9106 134.963 27.6695C134.195 27.1767 133.877 25.2857 134.311 22.7412C134.364 22.4413 134.422 22.1413 134.49 21.8466C135.571 22.1038 136.662 22.2805 137.767 22.3716C138.404 23.3733 139.104 24.3322 139.852 25.2322C139.697 25.3982 139.543 25.5589 139.388 25.7089ZM140.571 24.4072C140.078 23.818 139.586 23.1644 139.108 22.4627C139.572 22.4841 140.049 22.4948 140.532 22.4948C141.029 22.4948 141.517 22.4841 141.999 22.4573C141.555 23.1376 141.077 23.7858 140.571 24.4072ZM146.878 26.0143C146.835 26.6678 146.545 27.2785 146.082 27.691C145.315 28.1838 143.679 27.541 141.912 25.8589C141.71 25.6661 141.507 25.4572 141.299 25.2429C142.038 24.3376 142.718 23.3787 143.336 22.3716C144.441 22.2698 145.541 22.0823 146.627 21.8091C146.676 22.0288 146.719 22.2484 146.758 22.4627C146.994 23.6198 147.033 24.8251 146.878 26.0143ZM147.757 20.2557C147.621 20.3039 147.486 20.3521 147.346 20.3949C147.009 19.2271 146.594 18.0861 146.116 16.9773C146.579 15.8845 146.97 14.7595 147.298 13.6078C147.549 13.6882 147.79 13.7739 148.022 13.8596C150.271 14.7167 151.849 15.9916 151.849 16.9665C151.849 18.0165 150.165 19.3718 147.757 20.2557ZM140.532 19.4521C141.753 19.4521 142.742 18.354 142.742 16.9987C142.742 15.6434 141.753 14.5452 140.532 14.5452C139.311 14.5452 138.322 15.6434 138.322 16.9987C138.322 18.354 139.311 19.4521 140.532 19.4521Z" fill="#7906D2"/>
</g>
<defs>
<linearGradient id="paint0_linear_45_455" x1="269" y1="43" x2="278.299" y2="56.4054" gradientUnits="userSpaceOnUse">
<stop offset="0.122853" stop-color="#7906D2"/>
<stop offset="1" stop-color="#FF239A"/>
</linearGradient>
<clipPath id="clip0_45_455">
<rect width="209" height="25" fill="white" transform="translate(122 4)"/>
</clipPath>
</defs>
</svg>
