<svg width="440" height="309" viewBox="0 0 440 309" fill="none" xmlns="http://www.w3.org/2000/svg">
<g clip-path="url(#clip0_29_138)">
<path d="M388.967 204.114C386.836 224.393 382.408 240.675 376.329 253.66C368.241 270.961 354.406 277.932 342.047 285.226C338.476 287.33 334.763 289.123 330.942 290.589C308.453 299.258 283.282 296.958 263.511 292.381C249.643 289.168 235.567 287.192 221.415 286.47C217.379 286.268 213.339 286.168 209.295 286.17C203.059 286.179 90.7743 288.546 63.436 227.075C56.6864 211.911 52.0599 193.388 50.3978 170.809C45.6945 106.976 71.5445 65.0518 104.888 37.649C167.964 -14.1877 254.424 -12.0138 316.569 41.1883C357.965 76.6265 396.724 130.26 388.967 204.114Z" fill="#212E52"/>
<path d="M376.329 253.66C368.241 270.961 357.237 282.424 344.878 289.718C341.307 291.822 337.594 293.615 333.773 295.081C311.284 303.749 286.113 301.45 266.342 296.873C252.474 293.66 238.397 291.683 224.246 290.962C220.21 290.76 216.17 290.66 212.126 290.661C205.89 290.67 199.655 290.928 193.422 291.434C152.912 294.739 90.7743 288.546 63.436 227.075L131.838 79.9322L157.296 152.524L165.421 175.696L187.813 141.569L199.375 123.949L252.029 190.994L266.912 154.492L369.948 247.879L375.694 253.085L376.329 253.66Z" fill="#F2F2F2"/>
<path opacity="0.1" d="M122.132 127.093L132.647 101.491L147.206 138.771L134.669 111.822L122.132 127.093Z" fill="black"/>
<path opacity="0.1" d="M224.246 290.962C220.21 290.76 216.17 290.66 212.126 290.661L165.421 175.696L224.246 290.962Z" fill="black"/>
<path opacity="0.1" d="M187.813 141.569L199.375 131.585L251.949 198.957L198.566 141.466L187.813 141.569Z" fill="black"/>
<path opacity="0.1" d="M344.878 289.718C341.307 291.822 337.594 293.615 333.773 295.081L252.029 190.994L344.878 289.718Z" fill="black"/>
<path d="M194.926 47.1441C195.597 47.1441 196.14 46.5408 196.14 45.7966C196.14 45.0525 195.597 44.4492 194.926 44.4492C194.256 44.4492 193.713 45.0525 193.713 45.7966C193.713 46.5408 194.256 47.1441 194.926 47.1441Z" fill="#F2F2F2"/>
<path d="M161.36 93.4068C162.03 93.4068 162.574 92.8035 162.574 92.0594C162.574 91.3152 162.03 90.7119 161.36 90.7119C160.69 90.7119 160.147 91.3152 160.147 92.0594C160.147 92.8035 160.69 93.4068 161.36 93.4068Z" fill="#F2F2F2"/>
<path d="M243.456 101.042C243.903 101.042 244.265 100.64 244.265 100.144C244.265 99.648 243.903 99.2458 243.456 99.2458C243.009 99.2458 242.647 99.648 242.647 100.144C242.647 100.64 243.009 101.042 243.456 101.042Z" fill="#F2F2F2"/>
<path d="M73.6029 121.254C74.0496 121.254 74.4118 120.852 74.4118 120.356C74.4118 119.86 74.0496 119.458 73.6029 119.458C73.1562 119.458 72.7941 119.86 72.7941 120.356C72.7941 120.852 73.1562 121.254 73.6029 121.254Z" fill="#F2F2F2"/>
<path d="M248.309 45.3475C248.756 45.3475 249.118 44.9453 249.118 44.4492C249.118 43.9531 248.756 43.5509 248.309 43.5509C247.862 43.5509 247.5 43.9531 247.5 44.4492C247.5 44.9453 247.862 45.3475 248.309 45.3475Z" fill="#F2F2F2"/>
<path d="M298.456 88.4661C298.903 88.4661 299.265 88.0639 299.265 87.5678C299.265 87.0717 298.903 86.6695 298.456 86.6695C298.009 86.6695 297.647 87.0717 297.647 87.5678C297.647 88.0639 298.009 88.4661 298.456 88.4661Z" fill="#F2F2F2"/>
<path d="M347.794 156.737C348.241 156.737 348.603 156.335 348.603 155.839C348.603 155.343 348.241 154.941 347.794 154.941C347.347 154.941 346.985 155.343 346.985 155.839C346.985 156.335 347.347 156.737 347.794 156.737Z" fill="#F2F2F2"/>
<path d="M123.75 54.4472H122.634V53.2075H122.035V54.4472H120.919V55.1124H122.035V56.3516H122.634V55.1124H123.75V54.4472Z" fill="#F2F2F2"/>
<path d="M342.941 190.54H341.825V189.301H341.226V190.54H340.11V191.206H341.226V192.445H341.825V191.206H342.941V190.54Z" fill="#F2F2F2"/>
<path d="M440 275.763C440 283.205 341.503 309 220 309C98.4974 309 0 283.205 0 275.763C0 268.321 98.4974 282.051 220 282.051C341.503 282.051 440 268.321 440 275.763Z" fill="#212E52"/>
<path opacity="0.1" d="M440 275.763C440 283.205 341.503 309 220 309C98.4974 309 0 283.205 0 275.763C0 268.321 98.4974 282.051 220 282.051C341.503 282.051 440 268.321 440 275.763Z" fill="black"/>
<path d="M220 289.237C341.503 289.237 440 283.205 440 275.763C440 268.321 341.503 262.288 220 262.288C98.4974 262.288 0 268.321 0 275.763C0 283.205 98.4974 289.237 220 289.237Z" fill="#212E52"/>
<path d="M229.706 256.898C229.706 271.782 223.731 267.678 216.36 267.678C208.99 267.678 203.015 271.782 203.015 256.898C203.015 242.015 216.36 213.78 216.36 213.78C216.36 213.78 229.706 242.015 229.706 256.898Z" fill="#FF6584"/>
<path opacity="0.1" d="M222.426 262.593C222.426 269.358 219.711 267.493 216.36 267.493C213.01 267.493 210.294 269.358 210.294 262.593C210.294 255.828 216.36 242.994 216.36 242.994C216.36 242.994 222.426 255.828 222.426 262.593Z" fill="black"/>
<path d="M231.324 271.72H201.397C199.387 271.72 197.757 273.53 197.757 275.763C197.757 277.995 199.387 279.805 201.397 279.805H231.324C233.334 279.805 234.963 277.995 234.963 275.763C234.963 273.53 233.334 271.72 231.324 271.72Z" fill="#2F2E41"/>
<path d="M231.324 263.636H201.397C199.387 263.636 197.757 265.445 197.757 267.678C197.757 269.911 199.387 271.72 201.397 271.72H231.324C233.334 271.72 234.963 269.911 234.963 267.678C234.963 265.445 233.334 263.636 231.324 263.636Z" fill="#2F2E41"/>
<path d="M55.4044 220.322C55.4044 245.179 69.4454 265.294 86.7973 265.294L55.4044 220.322Z" fill="#212E52"/>
<path d="M86.7973 265.294C86.7973 240.157 102.466 219.817 121.83 219.817L86.7973 265.294Z" fill="#FF239A"/>
<path d="M66.7786 222.575C66.7786 246.187 75.7323 265.294 86.7973 265.294L66.7786 222.575Z" fill="#FF239A"/>
<path d="M86.7973 265.294C86.7973 233.175 104.908 207.184 127.29 207.184L86.7973 265.294Z" fill="#212E52"/>
<path d="M80.193 265.611C80.193 265.611 84.6451 265.459 85.9868 264.397C87.3285 263.336 92.8351 262.069 93.168 263.771C93.5008 265.473 99.8585 272.235 94.8322 272.28C89.8059 272.325 83.1533 271.411 81.8142 270.505C80.475 269.599 80.193 265.611 80.193 265.611Z" fill="#A8A8A8"/>
<path opacity="0.2" d="M94.9219 271.688C89.8956 271.733 83.243 270.818 81.9039 269.912C80.884 269.222 80.4776 266.747 80.3416 265.604C80.2475 265.609 80.193 265.611 80.193 265.611C80.193 265.611 80.475 269.599 81.8142 270.505C83.1533 271.411 89.8059 272.325 94.8322 272.28C96.2831 272.267 96.7843 271.694 96.7568 270.845C96.5552 271.358 96.0019 271.678 94.9219 271.688Z" fill="black"/>
<path d="M291.754 236.731C291.754 253.812 301.403 267.634 313.326 267.634L291.754 236.731Z" fill="#212E52"/>
<path d="M313.326 267.634C313.326 250.361 324.093 236.384 337.398 236.384L313.326 267.634Z" fill="#FF239A"/>
<path d="M299.57 238.28C299.57 254.504 305.723 267.634 313.326 267.634L299.57 238.28Z" fill="#FF239A"/>
<path d="M313.326 267.633C313.326 245.563 325.771 227.703 341.15 227.703L313.326 267.633Z" fill="#212E52"/>
<path d="M308.788 267.851C308.788 267.851 311.847 267.747 312.769 267.018C313.691 266.288 317.475 265.418 317.704 266.587C317.932 267.757 322.301 272.403 318.847 272.434C315.393 272.465 310.822 271.837 309.902 271.214C308.982 270.592 308.788 267.851 308.788 267.851Z" fill="#A8A8A8"/>
<path opacity="0.2" d="M318.909 272.027C315.455 272.058 310.884 271.43 309.963 270.807C309.263 270.333 308.983 268.632 308.89 267.847C308.825 267.85 308.788 267.851 308.788 267.851C308.788 267.851 308.982 270.592 309.902 271.214C310.822 271.837 315.393 272.465 318.847 272.434C319.844 272.425 320.188 272.031 320.17 271.448C320.031 271.8 319.651 272.02 318.909 272.027Z" fill="black"/>
<path d="M361.468 277.89C361.468 277.89 366.062 277.114 367.332 275.828C368.603 274.543 374.163 272.465 374.7 274.181C375.236 275.898 382.583 282.018 377.382 282.763C372.181 283.508 365.188 283.486 363.699 282.734C362.21 281.982 361.468 277.89 361.468 277.89Z" fill="#A8A8A8"/>
<path opacity="0.2" d="M377.408 282.137C372.208 282.882 365.214 282.86 363.725 282.108C362.591 281.535 361.891 279.027 361.622 277.863C361.525 277.881 361.468 277.89 361.468 277.89C361.468 277.89 362.21 281.982 363.699 282.734C365.188 283.486 372.181 283.508 377.382 282.763C378.884 282.548 379.338 281.884 379.214 281.009C379.063 281.568 378.526 281.977 377.408 282.137Z" fill="black"/>
<path d="M248.414 277.521C248.414 277.521 252.291 276.866 253.363 275.781C254.435 274.696 259.128 272.942 259.58 274.391C260.033 275.839 266.234 281.004 261.844 281.634C257.455 282.263 251.553 282.244 250.296 281.609C249.04 280.974 248.414 277.521 248.414 277.521Z" fill="#A8A8A8"/>
<path opacity="0.2" d="M261.866 281.105C257.477 281.734 251.575 281.715 250.318 281.08C249.361 280.597 248.771 278.481 248.543 277.498C248.461 277.513 248.414 277.521 248.414 277.521C248.414 277.521 249.04 280.974 250.296 281.609C251.553 282.243 257.455 282.262 261.844 281.633C263.111 281.452 263.495 280.892 263.39 280.153C263.263 280.625 262.81 280.97 261.866 281.105Z" fill="black"/>
<path d="M49.4955 275.371C49.4955 275.371 52.5138 274.861 53.3483 274.016C54.1828 273.172 57.8362 271.806 58.1887 272.934C58.5412 274.062 63.3682 278.083 59.9512 278.572C56.5342 279.062 51.9394 279.047 50.961 278.553C49.9827 278.059 49.4955 275.371 49.4955 275.371Z" fill="#A8A8A8"/>
<path opacity="0.2" d="M59.9684 278.161C56.5513 278.651 51.9566 278.636 50.9782 278.142C50.2332 277.765 49.7733 276.118 49.5962 275.353C49.5325 275.365 49.4955 275.371 49.4955 275.371C49.4955 275.371 49.9827 278.059 50.961 278.553C51.9394 279.047 56.5342 279.062 59.9512 278.572C60.9376 278.431 61.2362 277.995 61.1546 277.42C61.0554 277.787 60.7025 278.056 59.9684 278.161Z" fill="black"/>
<path opacity="0.1" d="M155.171 270.084C155.171 283.657 138.136 279.459 117.278 279.459C96.42 279.459 79.6378 283.657 79.6378 270.084C79.6378 256.51 96.6707 253.558 117.529 253.558C138.387 253.558 155.171 256.51 155.171 270.084Z" fill="black"/>
<path d="M155.171 266.742C155.171 280.315 138.136 276.117 117.278 276.117C96.42 276.117 79.6378 280.315 79.6378 266.742C79.6378 253.168 96.6707 250.216 117.529 250.216C138.387 250.216 155.171 253.168 155.171 266.742Z" fill="#212E52"/>
<path d="M158.419 204.554C157.414 205.124 156.458 205.796 155.565 206.562C154.668 207.334 153.981 208.367 153.581 209.546C153.078 208.239 152.667 206.89 152.352 205.512C151.643 203.04 150.805 200.616 149.841 198.252C151.423 197.583 152.795 196.414 153.787 194.891C155.728 197.037 157.724 199.276 158.69 202.122C158.856 202.613 159.34 203.135 159.452 203.574C159.611 204.196 158.843 204.294 158.419 204.554Z" fill="#FFBFC5"/>
<path d="M176.684 256.874C178.804 257.617 180.781 258.792 182.515 260.339C182.646 260.43 182.74 260.572 182.78 260.737C182.824 261.11 182.376 261.262 182.05 261.367C181.093 261.673 180.481 262.671 179.777 263.453C179.072 264.234 177.939 264.848 177.117 264.223C176.901 264.04 176.712 263.819 176.558 263.57L173.085 258.534C174.262 257.803 175.501 257.199 176.783 256.731" fill="#F1F1F1"/>
<path d="M182.929 257.921C183.389 258.443 183.588 259.192 184.04 259.723C184.343 260.044 184.69 260.311 185.067 260.515L187.725 262.139C188.134 262.408 188.564 262.633 189.009 262.813C189.51 262.968 190.02 263.087 190.535 263.167C191.271 263.32 191.992 263.556 192.685 263.872C193.207 264.109 193.788 264.518 193.785 265.143C193.764 265.449 193.652 265.738 193.466 265.965C192.418 267.431 190.564 267.756 188.888 267.952C185.259 268.378 181.546 268.698 178 267.748C177.307 267.606 176.653 267.292 176.086 266.828C175.016 265.843 174.803 264.049 175.202 262.571C175.316 262.004 175.617 261.505 176.048 261.175C176.609 260.817 177.309 260.983 177.955 260.928C178.642 260.824 179.307 260.588 179.921 260.232C180.327 260.029 180.794 259.767 180.881 259.231C180.961 258.734 180.436 258.237 180.546 257.793C180.791 256.809 182.505 257.441 182.929 257.921Z" fill="#575A89"/>
<path opacity="0.1" d="M182.929 257.921C183.389 258.443 183.588 259.192 184.04 259.723C184.343 260.044 184.69 260.311 185.067 260.515L187.725 262.139C188.134 262.408 188.564 262.633 189.009 262.813C189.51 262.968 190.02 263.087 190.535 263.167C191.271 263.32 191.992 263.556 192.685 263.872C193.207 264.109 193.788 264.518 193.785 265.143C193.764 265.449 193.652 265.738 193.466 265.965C192.418 267.431 190.564 267.756 188.888 267.952C185.259 268.378 181.546 268.698 178 267.748C177.307 267.606 176.653 267.292 176.086 266.828C175.016 265.843 174.803 264.049 175.202 262.571C175.316 262.004 175.617 261.505 176.048 261.175C176.609 260.817 177.309 260.983 177.955 260.928C178.642 260.824 179.307 260.588 179.921 260.232C180.327 260.029 180.794 259.767 180.881 259.231C180.961 258.734 180.436 258.237 180.546 257.793C180.791 256.809 182.505 257.441 182.929 257.921Z" fill="black"/>
<path d="M189.095 274.045C189.468 274.317 189.84 274.59 190.212 274.863C190.554 275.066 190.836 275.375 191.023 275.752C191.265 276.384 190.938 277.099 190.573 277.654C189.481 279.313 187.99 280.597 186.27 281.358C185.674 281.633 185.044 281.808 184.401 281.875C184.254 281.901 184.104 281.88 183.967 281.814C183.627 281.615 183.676 281.074 183.671 280.647C183.66 279.407 182.816 278.4 182.058 277.489C181.3 276.578 180.528 275.456 180.701 274.231C180.858 273.509 181.191 272.85 181.663 272.324C182.083 271.739 182.576 271.223 183.126 270.791C183.915 270.218 184.193 270.527 184.935 271.052C186.328 272.038 187.715 273.036 189.095 274.045Z" fill="#F1F1F1"/>
<path d="M185.467 280.087C185.77 280.172 186.088 280.177 186.394 280.1C186.699 280.024 186.984 279.868 187.226 279.647C187.705 279.198 188.094 278.643 188.368 278.016C188.639 277.459 188.875 276.881 189.075 276.287C189.308 275.592 189.524 274.823 190.074 274.401C190.741 273.89 191.68 274.09 192.358 274.583C192.997 275.137 193.584 275.761 194.109 276.446C195.517 277.904 197.224 278.959 199.081 279.519C200.931 280.074 202.806 280.519 204.699 280.853C205.077 280.909 205.443 281.04 205.78 281.239C206.541 281.755 206.794 282.905 206.583 283.866C206.314 284.815 205.832 285.672 205.183 286.356C204.672 287.03 204.038 287.575 203.323 287.956C202.718 288.201 202.081 288.335 201.438 288.352C198.321 288.588 195.19 288.315 192.144 287.544C191.026 287.207 189.887 286.954 188.738 286.789C188.037 286.72 187.331 286.742 186.629 286.689C185.233 286.583 183.868 286.183 182.607 285.511C182.3 285.386 182.041 285.147 181.874 284.835C181.783 284.548 181.764 284.238 181.82 283.94L182.285 279.412C182.326 279.018 182.444 278.528 182.797 278.467C183.133 278.409 183.377 278.79 183.588 279.086C183.998 279.631 184.559 280.009 185.183 280.161C185.808 280.313 186.46 280.229 187.037 279.924" fill="#575A89"/>
<path d="M158.475 222.998C160.521 222.742 162.893 222.699 164.276 224.392C165.124 225.43 165.382 226.885 165.675 228.248C166.134 230.538 166.88 232.745 167.891 234.804C168.542 236.08 169.331 237.277 169.83 238.634C170.341 240.025 170.53 241.531 170.829 242.997C172.028 248.787 174.955 253.958 179.134 257.668C178.396 259.897 176.262 261.17 174.186 261.74C173.746 261.947 173.256 261.984 172.795 261.844C172.334 261.705 171.928 261.397 171.644 260.97C170.672 259.806 169.768 258.575 168.935 257.285C165.943 252.847 162.905 248.316 161.275 243.076C160.703 241.237 160.131 239.09 158.522 238.322C157.604 237.883 156.555 238.02 155.57 238.206C153.369 238.62 151.203 239.238 149.094 240.052C146.846 240.921 144.272 241.99 142.214 240.661C140.983 239.866 140.25 238.338 139.979 236.785C139.776 235.217 139.774 233.625 139.974 232.056C139.987 231.347 140.141 230.649 140.423 230.012C140.708 229.535 141.073 229.125 141.498 228.803C143.336 227.253 145.38 226.03 147.556 225.179C149.635 224.365 151.87 224.089 154.039 223.686C155.512 223.413 156.991 223.184 158.475 222.998Z" fill="#575A89"/>
<path opacity="0.1" d="M158.475 222.998C160.521 222.742 162.893 222.699 164.276 224.392C165.124 225.43 165.382 226.885 165.675 228.248C166.134 230.538 166.88 232.745 167.891 234.804C168.542 236.08 169.331 237.277 169.83 238.634C170.341 240.025 170.53 241.531 170.829 242.997C172.028 248.787 174.955 253.958 179.134 257.668C178.396 259.897 176.262 261.17 174.186 261.74C173.746 261.947 173.256 261.984 172.795 261.844C172.334 261.705 171.928 261.397 171.644 260.97C170.672 259.806 169.768 258.575 168.935 257.285C165.943 252.847 162.905 248.316 161.275 243.076C160.703 241.237 160.131 239.09 158.522 238.322C157.604 237.883 156.555 238.02 155.57 238.206C153.369 238.62 151.203 239.238 149.094 240.052C146.846 240.921 144.272 241.99 142.214 240.661C140.983 239.866 140.25 238.338 139.979 236.785C139.776 235.217 139.774 233.625 139.974 232.056C139.987 231.347 140.141 230.649 140.423 230.012C140.708 229.535 141.073 229.125 141.498 228.803C143.336 227.253 145.38 226.03 147.556 225.179C149.635 224.365 151.87 224.089 154.039 223.686C155.512 223.413 156.991 223.184 158.475 222.998Z" fill="black"/>
<path d="M170.185 239.38C171.133 239.911 172.005 240.599 172.769 241.419C173.558 242.451 174.158 243.646 174.534 244.934C174.702 245.364 174.805 245.822 174.839 246.289C174.854 246.523 174.822 246.758 174.743 246.976C174.665 247.193 174.543 247.389 174.387 247.546C174.008 247.817 173.558 247.939 173.11 247.893C172.517 247.898 171.924 247.881 171.332 247.841C170.971 247.838 170.615 247.763 170.278 247.62C169.971 247.445 169.693 247.211 169.458 246.93C168.415 245.854 167.561 244.574 166.939 243.153C166.51 242.101 165.803 239.678 166.479 238.583C167.175 237.456 169.448 238.916 170.185 239.38Z" fill="#FFBFC5"/>
<path d="M141.507 239.004C144.532 240.08 147.752 240.203 150.915 240.532C156.234 241.084 161.49 242.238 166.599 243.975C167.665 244.264 168.67 244.783 169.556 245.504C170.239 246.206 170.818 247.024 171.271 247.928C172.102 249.334 172.855 250.796 173.525 252.305C174.099 253.668 174.537 255.097 175.072 256.481C176.868 261.113 179.708 265.153 183.318 268.211C183.978 268.769 184.712 269.375 184.882 270.276C184.958 270.856 184.873 271.448 184.638 271.973C183.858 273.99 182.239 275.458 180.54 276.581C179.81 277.064 179.006 277.554 178.647 278.41C176.065 277.226 174.146 274.702 172.549 272.158C170.951 269.613 169.534 266.878 167.487 264.768C166.585 263.838 165.56 263.029 164.85 261.912C163.768 260.208 163.475 257.876 162.017 256.561C160.55 255.236 158.444 255.416 156.561 255.621C146.919 256.67 137.203 256.553 127.584 255.273C125.584 255.007 123.529 254.667 121.797 253.526C120.065 252.385 118.716 250.244 118.961 248.024C119.191 245.945 120.75 244.297 122.487 243.484C124.224 242.67 126.144 242.524 128.018 242.29C132.615 241.792 137.143 240.689 141.507 239.004Z" fill="#575A89"/>
<path d="M113.846 243.32C114.084 241.557 114.7 239.888 115.087 238.159C115.281 237.071 115.526 235.995 115.822 234.936C115.832 234.906 115.843 234.876 115.853 234.847C115.951 234.838 116.046 234.805 116.132 234.751C116.218 234.696 116.291 234.622 116.348 234.532C116.401 234.378 116.415 234.21 116.39 234.048C116.382 233.875 116.387 233.702 116.404 233.531C117.037 232.352 117.728 231.214 118.475 230.121C119.785 228.06 120.919 225.869 122.052 223.682C122.98 221.89 123.91 220.093 124.679 218.209C125.255 216.797 125.74 215.337 126.377 213.957C128.645 209.045 132.722 205.427 137.106 202.826C141.312 200.332 145.859 198.651 150.281 196.668C150.395 196.792 150.498 196.927 150.59 197.072C152.979 200.699 153.237 205.466 154.22 209.826C154.617 211.586 155.148 213.34 155.147 215.154C155.145 217.833 153.993 220.325 152.847 222.682C151.823 224.934 150.614 227.077 149.236 229.083C148.559 230.013 147.814 230.879 147.134 231.806C144.346 235.602 142.736 240.27 141.172 244.85C140.266 247.501 138.785 249.853 137.789 252.465C137.406 253.469 137.185 254.551 136.705 255.501C136.224 256.451 135.388 257.287 134.406 257.292C134.119 257.283 133.834 257.234 133.558 257.145C130.006 256.13 127.031 253.519 124.078 251.101C123.552 250.67 123.022 250.242 122.469 249.853C121.91 249.46 121.33 249.107 120.751 248.754C120.312 248.487 119.872 248.219 119.433 247.952C117.994 247.076 116.552 246.199 115.053 245.458C114.602 245.257 114.169 245.01 113.759 244.72C113.754 244.252 113.784 243.783 113.846 243.32Z" fill="#FF239A"/>
<path d="M160.292 204.252C164.813 204.252 168.477 200.182 168.477 195.162C168.477 190.141 164.813 186.071 160.292 186.071C155.772 186.071 152.107 190.141 152.107 195.162C152.107 200.182 155.772 204.252 160.292 204.252Z" fill="#FFBFC5"/>
<path d="M165.798 190.908C165.996 191.293 166.296 191.6 166.657 191.788C167.017 191.976 167.421 192.037 167.814 191.961C168.204 191.874 168.574 191.696 168.898 191.439C169.222 191.182 169.494 190.852 169.695 190.471C170.093 189.703 170.331 188.846 170.392 187.963C170.456 187.624 170.458 187.274 170.4 186.934C170.341 186.594 170.223 186.27 170.051 185.981C169.746 185.652 169.395 185.38 169.013 185.174C168.486 184.809 168.043 184.311 167.72 183.721C167.491 183.3 167.327 182.841 167.121 182.406C166.376 180.836 164.928 179.559 163.33 179.617C162.563 179.644 161.832 179.968 161.076 180.116C158.538 180.61 155.78 179.119 153.426 180.282C152.847 180.595 152.308 180.993 151.825 181.467C151.163 182.074 150.526 182.714 149.914 183.386C149.383 183.888 148.981 184.538 148.75 185.268C148.43 186.602 149.19 188.092 148.706 189.364C148.541 189.728 148.343 190.072 148.116 190.393C147.582 191.263 148.162 194.659 148.103 195.71C148.035 196.224 148.153 196.748 148.431 197.166C148.817 197.644 149.466 197.686 150.045 197.694L151.107 197.708C151.266 197.72 151.425 197.702 151.579 197.654C151.787 197.551 151.971 197.394 152.113 197.196C152.997 196.162 153.189 192.78 154.472 192.792C154.667 192.78 154.861 192.836 155.026 192.951C155.259 193.141 155.327 193.489 155.492 193.752C155.681 193.999 155.936 194.172 156.22 194.246C156.504 194.319 156.801 194.289 157.069 194.16C157.599 193.888 158.06 193.474 158.411 192.956C158.761 192.438 159.185 191.988 159.667 191.624C160.351 191.181 161.124 190.988 161.79 190.487C162.346 190.069 162.663 189.461 163.162 188.999C163.362 188.808 163.612 188.695 163.876 188.679C164.139 188.663 164.4 188.743 164.617 188.908C165.405 189.365 165.439 190.113 165.798 190.908Z" fill="#2F2E41"/>
<path opacity="0.1" d="M146.886 206.925C148.798 206.624 150.746 206.797 152.59 207.434C153.205 207.59 153.761 207.956 154.179 208.481C154.417 208.879 154.572 209.331 154.632 209.803C155.008 211.977 154.767 214.227 153.942 216.243C153.883 216.343 153.844 216.457 153.828 216.575C153.811 216.694 153.818 216.815 153.847 216.931C153.93 217.071 154.038 217.191 154.165 217.282C154.28 217.404 154.37 217.553 154.43 217.717C154.489 217.881 154.517 218.057 154.51 218.234C154.504 218.411 154.464 218.585 154.392 218.743C154.321 218.901 154.221 219.041 154.097 219.153C153.945 219.277 153.744 219.384 153.714 219.592C153.682 219.818 153.873 219.995 154.022 220.153C154.24 220.39 154.4 220.684 154.489 221.008C154.578 221.332 154.592 221.676 154.529 222.008C154.449 222.275 154.394 222.55 154.365 222.83C154.396 223.172 154.486 223.504 154.632 223.807C154.881 224.491 154.966 225.236 154.879 225.967C154.799 226.313 154.792 226.674 154.856 227.024C154.946 227.255 155.068 227.469 155.218 227.658C155.806 228.54 155.935 230.014 155.082 230.567C155.447 230.775 155.744 231.104 155.933 231.509C156.121 231.914 156.191 232.375 156.133 232.826C156.643 232.524 157.261 232.91 157.685 233.345C158.11 233.78 158.543 234.313 159.12 234.345C159.523 234.367 159.946 234.135 160.314 234.319C160.872 234.599 160.853 235.604 161.402 235.906C161.883 236.17 162.554 235.739 162.964 236.123C163.107 236.257 163.179 236.465 163.317 236.605C163.629 236.922 164.115 236.787 164.537 236.768C165.037 236.784 165.525 236.945 165.953 237.234C166.38 237.524 166.731 237.933 166.973 238.42C167.444 239.401 167.728 240.479 167.808 241.587C167.916 242.19 167.905 242.811 167.776 243.408C167.707 243.705 167.561 243.973 167.355 244.179C167.15 244.384 166.895 244.518 166.622 244.563C161.598 244.925 156.642 243.587 151.751 242.264C150.314 241.876 148.853 241.421 147.655 240.459C146.566 239.584 145.766 238.348 144.985 237.134C143.546 234.895 142.097 232.639 141.067 230.137C139.741 226.917 139.15 223.395 138.57 219.913C138.371 218.98 138.3 218.018 138.36 217.061C138.534 215.942 138.919 214.876 139.49 213.934C140.182 212.685 140.946 211.488 141.779 210.35C143.045 208.551 144.863 207.331 146.886 206.925Z" fill="black"/>
<path d="M147.218 206.557C149.129 206.256 151.077 206.429 152.921 207.066C153.537 207.222 154.092 207.588 154.511 208.113C154.748 208.511 154.903 208.963 154.964 209.436C155.34 211.61 155.098 213.86 154.274 215.875C154.215 215.975 154.175 216.089 154.159 216.208C154.143 216.326 154.149 216.447 154.178 216.563C154.261 216.703 154.37 216.823 154.496 216.914C154.611 217.036 154.702 217.185 154.761 217.349C154.82 217.513 154.848 217.69 154.841 217.866C154.835 218.043 154.795 218.217 154.724 218.375C154.652 218.533 154.552 218.673 154.428 218.785C154.276 218.909 154.075 219.017 154.046 219.224C154.013 219.45 154.204 219.627 154.353 219.785C154.571 220.022 154.732 220.316 154.82 220.64C154.909 220.964 154.923 221.308 154.86 221.64C154.78 221.907 154.725 222.182 154.696 222.462C154.727 222.804 154.818 223.136 154.963 223.439C155.212 224.123 155.297 224.868 155.21 225.599C155.131 225.945 155.123 226.306 155.187 226.656C155.277 226.887 155.399 227.101 155.549 227.291C156.137 228.172 156.266 229.646 155.413 230.199C155.778 230.407 156.076 230.736 156.264 231.141C156.453 231.546 156.523 232.007 156.464 232.458C156.974 232.156 157.592 232.542 158.016 232.977C158.441 233.413 158.875 233.945 159.452 233.977C159.854 233.999 160.278 233.767 160.645 233.951C161.203 234.231 161.184 235.236 161.733 235.538C162.214 235.802 162.885 235.371 163.295 235.756C163.438 235.89 163.511 236.097 163.649 236.237C163.96 236.554 164.446 236.419 164.868 236.4C165.369 236.416 165.857 236.577 166.284 236.866C166.711 237.156 167.063 237.565 167.304 238.052C167.775 239.033 168.059 240.111 168.139 241.219C168.247 241.822 168.236 242.443 168.107 243.04C168.038 243.337 167.892 243.605 167.687 243.811C167.481 244.016 167.226 244.15 166.953 244.196C161.929 244.557 156.973 243.219 152.082 241.896C150.645 241.508 149.184 241.053 147.986 240.091C146.897 239.217 146.097 237.98 145.316 236.766C143.877 234.527 142.428 232.271 141.398 229.769C140.072 226.549 139.481 223.027 138.901 219.545C138.702 218.612 138.631 217.65 138.691 216.693C138.865 215.574 139.25 214.508 139.822 213.566C140.513 212.317 141.277 211.12 142.11 209.983C143.376 208.183 145.194 206.963 147.218 206.557Z" fill="#FF239A"/>
</g>
<defs>
<clipPath id="clip0_29_138">
<rect width="440" height="309" fill="white"/>
</clipPath>
</defs>
</svg>
